999
dxfrw 0.6.3
  0
SECTION
  2
HEADER
  9
$ACADVER
  1
AC1021
  9
$DWGCODEPAGE
  3
ANSI_1252
  9
$INSBASE
 10
0
 20
0
 30
0
  9
$EXTMIN
 10
-40
 20
-33.99999999999999
 30
0
  9
$EXTMAX
 10
544
 20
460.666666666667
 30
0
  9
$LIMMIN
 10
0
 20
0
  9
$LIMMAX
 10
420
 20
297
  9
$ORTHOMODE
 70
    0
  9
$REGENMODE
 70
    1
  9
$FILLMODE
 70
    1
  9
$QTEXTMODE
 70
    0
  9
$MIRRTEXT
 70
    0
  9
$LTSCALE
 40
1
  9
$ATTMODE
 70
    0
  9
$TEXTSIZE
 40
2.5
  9
$TRACEWID
 40
15.68
  9
$TEXTSTYLE
  7
STANDARD
  9
$CLAYER
  8
0
  9
$CELTYPE
  6
BYLAYER
  9
$CECOLOR
 62
  256
  9
$CELTSCALE
 40
1
  9
$DISPSILH
 70
    0
  9
$DIMSCALE
 40
1
  9
$DIMASZ
 40
2.5
  9
$DIMEXO
 40
0.625
  9
$DIMDLI
 40
3.75
  9
$DIMRND
 40
0
  9
$DIMDLE
 40
0
  9
$DIMEXE
 40
1.25
  9
$DIMTP
 40
0
  9
$DIMTM
 40
0
  9
$DIMTXT
 40
2.5
  9
$DIMCEN
 40
2.5
  9
$DIMTSZ
 40
0
  9
$DIMTOL
 70
    0
  9
$DIMLIM
 70
    0
  9
$DIMTIH
 70
    0
  9
$DIMTOH
 70
    0
  9
$DIMSE1
 70
    0
  9
$DIMSE2
 70
    0
  9
$DIMTAD
 70
    1
  9
$DIMZIN
 70
    1
  9
$DIMBLK
  1

  9
$DIMASO
 70
    1
  9
$DIMSHO
 70
    1
  9
$DIMPOST
  1

  9
$DIMAPOST
  1

  9
$DIMALT
 70
    0
  9
$DIMALTD
 70
    3
  9
$DIMALTF
 40
0.03937
  9
$DIMLFAC
 40
1
  9
$DIMTOFL
 70
    1
  9
$DIMTVP
 40
0
  9
$DIMTIX
 70
    0
  9
$DIMSOXD
 70
    0
  9
$DIMSAH
 70
    0
  9
$DIMBLK1
  1

  9
$DIMBLK2
  1

  9
$DIMSTYLE
  2
STANDARD
  9
$DIMCLRD
 70
    0
  9
$DIMCLRE
 70
    0
  9
$DIMCLRT
 70
  256
  9
$DIMTFAC
 40
1
  9
$DIMGAP
 40
0.625
  9
$DIMJUST
 70
    0
  9
$DIMSD1
 70
    0
  9
$DIMSD2
 70
    0
  9
$DIMTOLJ
 70
    0
  9
$DIMTZIN
 70
    8
  9
$DIMALTZ
 70
    0
  9
$DIMALTTZ
 70
    0
  9
$DIMUPT
 70
    0
  9
$DIMDEC
 70
    4
  9
$DIMTDEC
 70
    2
  9
$DIMALTU
 70
    2
  9
$DIMALTTD
 70
    3
  9
$DIMTXSTY
  7
standard
  9
$DIMAUNIT
 70
    0
  9
$DIMADEC
 70
    2
  9
$DIMALTRND
 40
0
  9
$DIMAZIN
 70
    0
  9
$DIMDSEP
 70
    0
  9
$DIMATFIT
 70
    3
  9
$DIMFRAC
 70
    0
  9
$DIMLDRBLK
  1
STANDARD
  9
$DIMLUNIT
 70
    2
  9
$DIMLWD
 70
   -2
  9
$DIMLWE
 70
   -2
  9
$DIMTMOVE
 70
    0
  9
$DIMFXL
 40
1
  9
$DIMFXLON
 70
    0
  9
$DIMJOGANG
 40
0.7854
  9
$DIMTFILL
 70
    0
  9
$DIMTFILLCLR
 70
    0
  9
$DIMARCSYM
 70
    0
  9
$DIMLTYPE
  6

  9
$DIMLTEX1
  6

  9
$DIMLTEX2
  6

  9
$LUNITS
 70
    2
  9
$LUPREC
 70
    4
  9
$SKETCHINC
 40
1
  9
$FILLETRAD
 40
0
  9
$AUNITS
 70
    0
  9
$AUPREC
 70
    2
  9
$MENU
  1
.
  9
$ELEVATION
 40
0
  9
$PELEVATION
 40
0
  9
$THICKNESS
 40
0
  9
$LIMCHECK
 70
    0
  9
$CHAMFERA
 40
0
  9
$CHAMFERB
 40
0
  9
$CHAMFERC
 40
0
  9
$CHAMFERD
 40
0
  9
$SKPOLY
 70
    0
  9
$USRTIMER
 70
    1
  9
$ANGBASE
 50
0
  9
$ANGDIR
 70
    0
  9
$PDMODE
 70
   34
  9
$PDSIZE
 40
0
  9
$PLINEWID
 40
0
  9
$SPLFRAME
 70
    0
  9
$SPLINETYPE
 70
    2
  9
$SPLINESEGS
 70
    8
  9
$HANDSEED
  5
20000
  9
$SURFTAB1
 70
    6
  9
$SURFTAB2
 70
    6
  9
$SURFTYPE
 70
    6
  9
$SURFU
 70
    6
  9
$SURFV
 70
    6
  9
$UCSBASE
  2

  9
$UCSNAME
  2

  9
$UCSORG
 10
0
 20
0
 30
0
  9
$UCSXDIR
 10
1
 20
0
 30
0
  9
$UCSYDIR
 10
0
 20
1
 30
0
  9
$UCSORTHOREF
  2

  9
$UCSORTHOVIEW
 70
    0
  9
$UCSORGTOP
 10
0
 20
0
 30
0
  9
$UCSORGBOTTOM
 10
0
 20
0
 30
0
  9
$UCSORGLEFT
 10
0
 20
0
 30
0
  9
$UCSORGRIGHT
 10
0
 20
0
 30
0
  9
$UCSORGFRONT
 10
0
 20
0
 30
0
  9
$UCSORGBACK
 10
0
 20
0
 30
0
  9
$PUCSBASE
  2

  9
$PUCSNAME
  2

  9
$PUCSORG
 10
0
 20
0
 30
0
  9
$PUCSXDIR
 10
1
 20
0
 30
0
  9
$PUCSYDIR
 10
0
 20
1
 30
0
  9
$PUCSORTHOREF
  2

  9
$PUCSORTHOVIEW
 70
    0
  9
$PUCSORGTOP
 10
0
 20
0
 30
0
  9
$PUCSORGBOTTOM
 10
0
 20
0
 30
0
  9
$PUCSORGLEFT
 10
0
 20
0
 30
0
  9
$PUCSORGRIGHT
 10
0
 20
0
 30
0
  9
$PUCSORGFRONT
 10
0
 20
0
 30
0
  9
$PUCSORGBACK
 10
0
 20
0
 30
0
  9
$USERI1
 70
    0
  9
$USERI2
 70
    0
  9
$USERI3
 70
    0
  9
$USERI4
 70
    0
  9
$USERI5
 70
    0
  9
$USERR1
 40
0
  9
$USERR2
 40
0
  9
$USERR3
 40
0
  9
$USERR4
 40
0
  9
$USERR5
 40
0
  9
$WORLDVIEW
 70
    1
  9
$SHADEDGE
 70
    3
  9
$SHADEDIF
 70
   70
  9
$TILEMODE
 70
    1
  9
$MAXACTVP
 70
   64
  9
$PINSBASE
 10
0
 20
0
 30
0
  9
$PLIMCHECK
 70
    0
  9
$PEXTMIN
 10
0
 20
0
 30
0
  9
$PEXTMAX
 10
0
 20
0
 30
0
  9
$GRIDMODE
 70
    1
  9
$SNAPSTYLE
 70
    0
  9
$GRIDUNIT
 10
0.01
 20
0.01
  9
$PLIMMIN
 10
0
 20
0
  9
$PLIMMAX
 10
210
 20
297
  9
$UNITMODE
 70
    0
  9
$VISRETAIN
 70
    1
  9
$PLINEGEN
 70
    0
  9
$PSLTSCALE
 70
    1
  9
$TREEDEPTH
 70
 3020
  9
$CMLSTYLE
  2
Standard
  9
$CMLJUST
 70
    0
  9
$CMLSCALE
 40
20
  9
$PROXYGRAPHICS
 70
    1
  9
$MEASUREMENT
 70
    1
  9
$CELWEIGHT
370
   -1
  9
$ENDCAPS
280
    0
  9
$JOINSTYLE
280
    0
  9
$LWDISPLAY
290
    0
  9
$INSUNITS
 70
    4
  9
$HYPERLINKBASE
  1

  9
$STYLESHEET
  1

  9
$XEDIT
290
    1
  9
$CEPSNTYPE
380
    0
  9
$PSTYLEMODE
290
    1
  9
$EXTNAMES
290
    1
  9
$PSVPSCALE
 40
1
  9
$OLESTARTUP
290
    0
  9
$SORTENTS
280
  127
  9
$INDEXCTL
280
    0
  9
$HIDETEXT
280
    1
  9
$XCLIPFRAME
290
    0
  9
$HALOGAP
280
    0
  9
$OBSCOLOR
 70
  257
  9
$OBSLTYPE
280
    0
  9
$INTERSECTIONDISPLAY
280
    0
  9
$INTERSECTIONCOLOR
 70
  257
  9
$DIMASSOC
280
    1
  9
$PROJECTNAME
  1

  9
$CAMERADISPLAY
290
    0
  9
$LENSLENGTH
 40
50
  9
$CAMERAHEIGHT
 40
0
  9
$STEPSPERSEC
 40
2
  9
$STEPSIZE
 40
50
  9
$3DDWFPREC
 40
2
  9
$PSOLWIDTH
 40
5
  9
$PSOLHEIGHT
 40
80
  9
$LOFTANG1
 40
1.570796326794897
  9
$LOFTANG2
 40
1.570796326794897
  9
$LOFTMAG1
 40
0
  9
$LOFTMAG2
 40
0
  9
$LOFTPARAM
 70
    7
  9
$LOFTNORMALS
280
    1
  9
$LATITUDE
 40
1
  9
$LONGITUDE
 40
1
  9
$NORTHDIRECTION
 40
0
  9
$TIMEZONE
 70
-8000
  9
$LIGHTGLYPHDISPLAY
280
    1
  9
$TILEMODELIGHTSYNCH
280
    1
  9
$SOLIDHIST
280
    1
  9
$SHOWHIST
280
    1
  9
$DWFFRAME
280
    2
  9
$DGNFRAME
280
    0
  9
$REALWORLDSCALE
290
    1
  9
$INTERFERECOLOR
 62
    1
  9
$CSHADOW
280
    0
  9
$SHADOWPLANELOCATION
 40
0
  0
ENDSEC
  0
SECTION
  2
CLASSES
  0
ENDSEC
  0
SECTION
  2
TABLES
  0
TABLE
  2
VPORT
  5
8
330
0
100
AcDbSymbolTable
 70
    1
  0
VPORT
  5
31
330
2
100
AcDbSymbolTableRecord
100
AcDbViewportTableRecord
  2
*ACTIVE
 70
    0
 10
0
 20
0
 11
1
 21
1
 12
776.2220030878009
 22
251.1649274255572
 13
0
 23
0
 14
10
 24
10
 15
0.01
 25
0.01
 16
0
 26
0
 36
1
 17
0
 27
0
 37
0
 40
991.8392261677457
 41
1.755581668625147
 42
50
 43
0
 44
0
 50
0
 51
0
 71
    0
 72
  100
 73
    1
 74
    3
 75
    0
 76
    1
 77
    0
 78
    0
281
    0
 65
    1
110
0
120
0
130
0
111
1
121
0
131
0
112
0
122
1
132
0
 79
    0
146
0
348
10020
 60
    3
 61
    5
292
1
282
    1
141
0
142
0
 63
  250
421
3358443
  0
ENDTAB
  0
TABLE
  2
LTYPE
  5
5
330
0
100
AcDbSymbolTable
 70
    4
  0
LTYPE
  5
14
330
5
100
AcDbSymbolTableRecord
100
AcDbLinetypeTableRecord
  2
ByBlock
 70
    0
  3

 72
   65
 73
    0
 40
0
  0
LTYPE
  5
15
330
5
100
AcDbSymbolTableRecord
100
AcDbLinetypeTableRecord
  2
ByLayer
 70
    0
  3

 72
   65
 73
    0
 40
0
  0
LTYPE
  5
16
330
5
100
AcDbSymbolTableRecord
100
AcDbLinetypeTableRecord
  2
Continuous
 70
    0
  3
Solid line
 72
   65
 73
    0
 40
0
  0
LTYPE
  5
32
330
5
100
AcDbSymbolTableRecord
100
AcDbLinetypeTableRecord
  2
DOT
 70
    0
  3
Dot . . . . . . . . . . . . . . . . . . . . . .
 72
   65
 73
    2
 40
6.35
 49
0
 74
    0
 49
-6.35
 74
    0
  0
LTYPE
  5
33
330
5
100
AcDbSymbolTableRecord
100
AcDbLinetypeTableRecord
  2
DOTTINY
 70
    0
  3
Dot (.15x) .....................................
 72
   65
 73
    2
 40
0.9525
 49
0
 74
    0
 49
-0.9525
 74
    0
  0
LTYPE
  5
34
330
5
100
AcDbSymbolTableRecord
100
AcDbLinetypeTableRecord
  2
DOT2
 70
    0
  3
Dot (.5x) .....................................
 72
   65
 73
    2
 40
3.175
 49
0
 74
    0
 49
-3.175
 74
    0
  0
LTYPE
  5
35
330
5
100
AcDbSymbolTableRecord
100
AcDbLinetypeTableRecord
  2
DOTX2
 70
    0
  3
Dot (2x) .  .  .  .  .  .  .  .  .  .  .  .  .
 72
   65
 73
    2
 40
12.7
 49
0
 74
    0
 49
-12.7
 74
    0
  0
LTYPE
  5
36
330
5
100
AcDbSymbolTableRecord
100
AcDbLinetypeTableRecord
  2
DASHED
 70
    0
  3
Dashed _ _ _ _ _ _ _ _ _ _ _ _ _ _ _ _ _
 72
   65
 73
    2
 40
19.05
 49
12.7
 74
    0
 49
-6.35
 74
    0
  0
LTYPE
  5
37
330
5
100
AcDbSymbolTableRecord
100
AcDbLinetypeTableRecord
  2
DASHEDTINY
 70
    0
  3
Dashed (.15x) _ _ _ _ _ _ _ _ _ _ _ _ _ _ _ _ _
 72
   65
 73
    2
 40
2.8575
 49
1.905
 74
    0
 49
-0.9525
 74
    0
  0
LTYPE
  5
38
330
5
100
AcDbSymbolTableRecord
100
AcDbLinetypeTableRecord
  2
DASHED2
 70
    0
  3
Dashed (.5x) _ _ _ _ _ _ _ _ _ _ _ _ _ _ _ _ _
 72
   65
 73
    2
 40
9.524999999999999
 49
6.35
 74
    0
 49
-3.175
 74
    0
  0
LTYPE
  5
39
330
5
100
AcDbSymbolTableRecord
100
AcDbLinetypeTableRecord
  2
DASHEDX2
 70
    0
  3
Dashed (2x) ____  ____  ____  ____  ____  ___
 72
   65
 73
    2
 40
38.09999999999999
 49
25.4
 74
    0
 49
-12.7
 74
    0
  0
LTYPE
  5
3A
330
5
100
AcDbSymbolTableRecord
100
AcDbLinetypeTableRecord
  2
DASHDOT
 70
    0
  3
Dash dot __ . __ . __ . __ . __ . __ . __ . __
 72
   65
 73
    4
 40
25.4
 49
12.7
 74
    0
 49
-6.35
 74
    0
 49
0
 74
    0
 49
-6.35
 74
    0
  0
LTYPE
  5
3B
330
5
100
AcDbSymbolTableRecord
100
AcDbLinetypeTableRecord
  2
DASHDOTTINY
 70
    0
  3
Dash dot (.15x) _._._._._._._._._._._._._._._.
 72
   65
 73
    4
 40
3.81
 49
1.905
 74
    0
 49
-0.9525
 74
    0
 49
0
 74
    0
 49
-0.9525
 74
    0
  0
LTYPE
  5
3C
330
5
100
AcDbSymbolTableRecord
100
AcDbLinetypeTableRecord
  2
DASHDOT2
 70
    0
  3
Dash dot (.5x) _._._._._._._._._._._._._._._.
 72
   65
 73
    4
 40
12.7
 49
6.35
 74
    0
 49
-3.175
 74
    0
 49
0
 74
    0
 49
-3.175
 74
    0
  0
LTYPE
  5
3D
330
5
100
AcDbSymbolTableRecord
100
AcDbLinetypeTableRecord
  2
DASHDOTX2
 70
    0
  3
Dash dot (2x) ____  .  ____  .  ____  .  ___
 72
   65
 73
    4
 40
50.8
 49
25.4
 74
    0
 49
-12.7
 74
    0
 49
0
 74
    0
 49
-12.7
 74
    0
  0
LTYPE
  5
3E
330
5
100
AcDbSymbolTableRecord
100
AcDbLinetypeTableRecord
  2
DIVIDE
 70
    0
  3
Divide ____ . . ____ . . ____ . . ____ . . ____
 72
   65
 73
    6
 40
31.75
 49
12.7
 74
    0
 49
-6.35
 74
    0
 49
0
 74
    0
 49
-6.35
 74
    0
 49
0
 74
    0
 49
-6.35
 74
    0
  0
LTYPE
  5
3F
330
5
100
AcDbSymbolTableRecord
100
AcDbLinetypeTableRecord
  2
DIVIDETINY
 70
    0
  3
Divide (.15x) __..__..__..__..__..__..__..__.._
 72
   65
 73
    6
 40
4.7625
 49
1.905
 74
    0
 49
-0.9525
 74
    0
 49
0
 74
    0
 49
-0.9525
 74
    0
 49
0
 74
    0
 49
-0.9525
 74
    0
  0
LTYPE
  5
40
330
5
100
AcDbSymbolTableRecord
100
AcDbLinetypeTableRecord
  2
DIVIDE2
 70
    0
  3
Divide (.5x) __..__..__..__..__..__..__..__.._
 72
   65
 73
    6
 40
15.875
 49
6.35
 74
    0
 49
-3.175
 74
    0
 49
0
 74
    0
 49
-3.175
 74
    0
 49
0
 74
    0
 49
-3.175
 74
    0
  0
LTYPE
  5
41
330
5
100
AcDbSymbolTableRecord
100
AcDbLinetypeTableRecord
  2
DIVIDEX2
 70
    0
  3
Divide (2x) ________  .  .  ________  .  .  _
 72
   65
 73
    6
 40
63.5
 49
25.4
 74
    0
 49
-12.7
 74
    0
 49
0
 74
    0
 49
-12.7
 74
    0
 49
0
 74
    0
 49
-12.7
 74
    0
  0
LTYPE
  5
42
330
5
100
AcDbSymbolTableRecord
100
AcDbLinetypeTableRecord
  2
BORDER
 70
    0
  3
Border __ __ . __ __ . __ __ . __ __ . __ __ .
 72
   65
 73
    6
 40
44.45
 49
12.7
 74
    0
 49
-6.35
 74
    0
 49
12.7
 74
    0
 49
-6.35
 74
    0
 49
0
 74
    0
 49
-6.35
 74
    0
  0
LTYPE
  5
43
330
5
100
AcDbSymbolTableRecord
100
AcDbLinetypeTableRecord
  2
BORDERTINY
 70
    0
  3
Border (.15x) __.__.__.__.__.__.__.__.__.__.__.
 72
   65
 73
    6
 40
6.6675
 49
1.905
 74
    0
 49
-0.9525
 74
    0
 49
1.905
 74
    0
 49
-0.9525
 74
    0
 49
0
 74
    0
 49
-0.9525
 74
    0
  0
LTYPE
  5
44
330
5
100
AcDbSymbolTableRecord
100
AcDbLinetypeTableRecord
  2
BORDER2
 70
    0
  3
Border (.5x) __.__.__.__.__.__.__.__.__.__.__.
 72
   65
 73
    6
 40
22.225
 49
6.35
 74
    0
 49
-3.175
 74
    0
 49
6.35
 74
    0
 49
-3.175
 74
    0
 49
0
 74
    0
 49
-3.175
 74
    0
  0
LTYPE
  5
45
330
5
100
AcDbSymbolTableRecord
100
AcDbLinetypeTableRecord
  2
BORDERX2
 70
    0
  3
Border (2x) ____  ____  .  ____  ____  .  ___
 72
   65
 73
    6
 40
88.89999999999999
 49
25.4
 74
    0
 49
-12.7
 74
    0
 49
25.4
 74
    0
 49
-12.7
 74
    0
 49
0
 74
    0
 49
-12.7
 74
    0
  0
LTYPE
  5
46
330
5
100
AcDbSymbolTableRecord
100
AcDbLinetypeTableRecord
  2
CENTER
 70
    0
  3
Center ____ _ ____ _ ____ _ ____ _ ____ _ ____
 72
   65
 73
    4
 40
50.8
 49
31.75
 74
    0
 49
-6.35
 74
    0
 49
6.35
 74
    0
 49
-6.35
 74
    0
  0
LTYPE
  5
47
330
5
100
AcDbSymbolTableRecord
100
AcDbLinetypeTableRecord
  2
CENTERTINY
 70
    0
  3
Center (.15x) ___ _ ___ _ ___ _ ___ _ ___ _ ___
 72
   65
 73
    4
 40
7.62
 49
4.7625
 74
    0
 49
-0.9525
 74
    0
 49
0.9525
 74
    0
 49
-0.9525
 74
    0
  0
LTYPE
  5
48
330
5
100
AcDbSymbolTableRecord
100
AcDbLinetypeTableRecord
  2
CENTER2
 70
    0
  3
Center (.5x) ___ _ ___ _ ___ _ ___ _ ___ _ ___
 72
   65
 73
    4
 40
28.575
 49
19.05
 74
    0
 49
-3.175
 74
    0
 49
3.175
 74
    0
 49
-3.175
 74
    0
  0
LTYPE
  5
49
330
5
100
AcDbSymbolTableRecord
100
AcDbLinetypeTableRecord
  2
CENTERX2
 70
    0
  3
Center (2x) ________  __  ________  __  _____
 72
   65
 73
    4
 40
101.6
 49
63.5
 74
    0
 49
-12.7
 74
    0
 49
12.7
 74
    0
 49
-12.7
 74
    0
  0
ENDTAB
  0
TABLE
  2
LAYER
  5
2
330
0
100
AcDbSymbolTable
 70
    1
  0
LAYER
  5
10
330
2
100
AcDbSymbolTableRecord
100
AcDbLayerTableRecord
  2
0
 70
    0
 62
    7
  6
CONTINUOUS
370
    0
390
F
  0
LAYER
  5
4A
330
2
100
AcDbSymbolTableRecord
100
AcDbLayerTableRecord
  2
blue
 70
    0
 62
    4
  6
CONTINUOUS
370
    0
390
F
  0
LAYER
  5
4B
330
2
100
AcDbSymbolTableRecord
100
AcDbLayerTableRecord
  2
brown
 70
    0
 62
   58
420
5592320
  6
CONTINUOUS
370
    0
390
F
  0
LAYER
  5
4C
330
2
100
AcDbSymbolTableRecord
100
AcDbLayerTableRecord
  2
green
 70
    0
 62
    3
  6
CONTINUOUS
370
    0
390
F
  0
LAYER
  5
4D
330
2
100
AcDbSymbolTableRecord
100
AcDbLayerTableRecord
  2
magenta
 70
    0
 62
    6
  6
CONTINUOUS
370
    0
390
F
  0
LAYER
  5
4E
330
2
100
AcDbSymbolTableRecord
100
AcDbLayerTableRecord
  2
orange
 70
    0
 62
   30
420
16738816
  6
CONTINUOUS
370
    0
390
F
  0
LAYER
  5
4F
330
2
100
AcDbSymbolTableRecord
100
AcDbLayerTableRecord
  2
red
 70
    0
 62
    1
  6
CONTINUOUS
370
    0
390
F
  0
LAYER
  5
50
330
2
100
AcDbSymbolTableRecord
100
AcDbLayerTableRecord
  2
sig
 70
    0
 62
    2
  6
CONTINUOUS
370
    0
390
F
  0
LAYER
  5
51
330
2
100
AcDbSymbolTableRecord
100
AcDbLayerTableRecord
  2
text
 70
    0
 62
  255
  6
CONTINUOUS
370
    0
390
F
  0
ENDTAB
  0
TABLE
  2
STYLE
  5
3
330
0
100
AcDbSymbolTable
 70
    3
  0
STYLE
  5
52
330
2
100
AcDbSymbolTableRecord
100
AcDbTextStyleTableRecord
  2
iso
 70
    0
 40
0
 41
1
 50
0
 71
    0
 42
1
  3
iso
  4

  0
STYLE
  5
53
330
2
100
AcDbSymbolTableRecord
100
AcDbTextStyleTableRecord
  2
Standard
 70
    0
 40
0
 41
1
 50
0
 71
    0
 42
1
  3
txt
  4

  0
ENDTAB
  0
TABLE
  2
VIEW
  5
6
330
0
100
AcDbSymbolTable
 70
    0
  0
ENDTAB
  0
TABLE
  2
UCS
  5
7
330
0
100
AcDbSymbolTable
 70
    0
  0
ENDTAB
  0
TABLE
  2
APPID
  5
9
330
0
100
AcDbSymbolTable
 70
    1
  0
APPID
  5
12
330
9
100
AcDbSymbolTableRecord
100
AcDbRegAppTableRecord
  2
ACAD
 70
    0
  0
APPID
  5
54
330
9
100
AcDbSymbolTableRecord
100
AcDbRegAppTableRecord
  2
LibreCad
 70
    0
  0
ENDTAB
  0
TABLE
  2
DIMSTYLE
  5
A
330
0
100
AcDbSymbolTable
 70
    1
100
AcDbDimStyleTable
 71
    1
  0
DIMSTYLE
105
55
330
A
100
AcDbSymbolTableRecord
100
AcDbDimStyleTableRecord
  2
Standard
 70
    0
 40
1
 41
2.5
 42
0.625
 43
0.38
 44
1.25
 45
0
 46
0
 47
0
 48
0
 49
1
140
2.5
141
0.09
142
0
143
25.4
144
1
145
0
146
1
147
0.625
148
0
 71
    0
 72
    0
 73
    0
 74
    1
 75
    0
 76
    0
 77
    0
 78
    1
 79
    0
170
    0
171
    2
172
    0
173
    0
174
    0
175
    0
176
    0
177
    0
178
  256
179
    2
271
    4
272
    4
273
    2
274
    2
275
    0
276
    0
277
    2
278
    0
279
    0
280
    0
281
    0
282
    0
283
    1
284
    0
285
    0
286
    0
288
    0
289
    3
340
standard
341

371
   -2
372
   -2
  0
ENDTAB
  0
TABLE
  2
BLOCK_RECORD
  5
1
330
0
100
AcDbSymbolTable
 70
    2
  0
BLOCK_RECORD
  5
1F
330
1
100
AcDbSymbolTableRecord
100
AcDbBlockTableRecord
  2
*Model_Space
 70
    0
280
    1
281
    0
  0
BLOCK_RECORD
  5
1E
330
1
100
AcDbSymbolTableRecord
100
AcDbBlockTableRecord
  2
*Paper_Space
 70
    0
280
    1
281
    0
  0
ENDTAB
  0
ENDSEC
  0
SECTION
  2
BLOCKS
  0
BLOCK
  5
20
330
1F
100
AcDbEntity
  8
0
100
AcDbBlockBegin
  2
*Model_Space
 70
    0
 10
0
 20
0
 30
0
  3
*Model_Space
  1

  0
ENDBLK
  5
21
330
1F
100
AcDbEntity
  8
0
100
AcDbBlockEnd
  0
BLOCK
  5
1C
330
1B
100
AcDbEntity
  8
0
100
AcDbBlockBegin
  2
*Paper_Space
 70
    0
 10
0
 20
0
 30
0
  3
*Paper_Space
  1

  0
ENDBLK
  5
1D
330
1F
100
AcDbEntity
  8
0
100
AcDbBlockEnd
  0
ENDSEC
  0
SECTION
  2
ENTITIES
  0
CIRCLE
  5
56
100
AcDbEntity
  8
text
  6
ByLayer
 62
  256
370
   -1
100
AcDbCircle
 10
114
 20
384
 40
0
  0
CIRCLE
  5
57
100
AcDbEntity
  8
text
  6
ByLayer
 62
  256
370
   -1
100
AcDbCircle
 10
100
 20
332
 40
4
  0
CIRCLE
  5
58
100
AcDbEntity
  8
text
  6
ByLayer
 62
  256
370
   -1
100
AcDbCircle
 10
100
 20
344
 40
4
  0
CIRCLE
  5
59
100
AcDbEntity
  8
text
  6
ByLayer
 62
  256
370
   -1
100
AcDbCircle
 10
100
 20
320
 40
4
  0
TEXT
  5
5A
100
AcDbEntity
  8
text
  6
ByLayer
 62
  256
370
   -1
100
AcDbText
 10
106.0000012720129
 20
364
 30
0
 40
6
  1
ESC FR
 50
0
 41
1
 51
0
  7
iso
 71
    0
210
0
220
0
230
1
100
AcDbText
  0
TEXT
  5
5B
100
AcDbEntity
  8
text
  6
ByLayer
 62
  256
370
   -1
100
AcDbText
 10
106
 20
344
 30
0
 40
4
  1
VDD
 50
0
 41
1
 51
0
  7
iso
 71
    0
210
0
220
0
230
1
100
AcDbText
  0
TEXT
  5
5C
100
AcDbEntity
  8
text
  6
ByLayer
 62
  256
370
   -1
100
AcDbText
 10
106.4444444444445
 20
332
 30
0
 40
4
  1
GND
 50
0
 41
1
 51
0
  7
iso
 71
    0
210
0
220
0
230
1
100
AcDbText
  0
TEXT
  5
5D
100
AcDbEntity
  8
text
  6
ByLayer
 62
  256
370
   -1
100
AcDbText
 10
107.5555559795598
 20
320
 30
0
 40
4
  1
SIG
 50
0
 41
1
 51
0
  7
iso
 71
    0
210
0
220
0
230
1
100
AcDbText
  0
CIRCLE
  5
5E
100
AcDbEntity
  8
text
  6
ByLayer
 62
  256
370
   -1
100
AcDbCircle
 10
142
 20
344
 40
4
  0
CIRCLE
  5
5F
100
AcDbEntity
  8
text
  6
ByLayer
 62
  256
370
   -1
100
AcDbCircle
 10
142
 20
356
 40
4
  0
CIRCLE
  5
60
100
AcDbEntity
  8
text
  6
ByLayer
 62
  256
370
   -1
100
AcDbCircle
 10
142
 20
332
 40
4
  0
CIRCLE
  5
61
100
AcDbEntity
  8
text
  6
ByLayer
 62
  256
370
   -1
100
AcDbCircle
 10
142
 20
320
 40
4
  0
CIRCLE
  5
62
100
AcDbEntity
  8
text
  6
ByLayer
 62
  256
370
   -1
100
AcDbCircle
 10
142
 20
308
 40
4
  0
TEXT
  5
63
100
AcDbEntity
  8
text
  6
ByLayer
 62
  256
370
   -1
100
AcDbText
 10
127.3333337573375
 20
354
 30
0
 40
4
  1
5V
 50
0
 41
1
 51
0
  7
iso
 71
    0
210
0
220
0
230
1
100
AcDbText
  0
TEXT
  5
64
100
AcDbEntity
  8
text
  6
ByLayer
 62
  256
370
   -1
100
AcDbText
 10
126.6608490268543
 20
342.6746109877248
 30
0
 40
4
  1
GND
 50
0
 41
1
 51
0
  7
iso
 71
    0
210
0
220
0
230
1
100
AcDbText
  0
TEXT
  5
65
100
AcDbEntity
  8
text
  6
ByLayer
 62
  256
370
   -1
100
AcDbText
 10
126.4444452924531
 20
330
 30
0
 40
4
  1
SIG
 50
0
 41
1
 51
0
  7
iso
 71
    0
210
0
220
0
230
1
100
AcDbText
  0
TEXT
  5
66
100
AcDbEntity
  8
text
  6
ByLayer
 62
  256
370
   -1
100
AcDbText
 10
127.5621294218474
 20
318.963629767296
 30
0
 40
4
  1
VIN
 50
0
 41
1
 51
0
  7
iso
 71
    0
210
0
220
0
230
1
100
AcDbText
  0
TEXT
  5
67
100
AcDbEntity
  8
text
  6
ByLayer
 62
  256
370
   -1
100
AcDbText
 10
127.0300575119418
 20
306.8147999111138
 30
0
 40
4
  1
GND
 50
0
 41
1
 51
0
  7
iso
 71
    0
210
0
220
0
230
1
100
AcDbText
  0
LWPOLYLINE
  5
68
100
AcDbEntity
  8
text
  6
ByLayer
 62
  256
370
   -1
100
AcDbPolyline
 90
    4
 70
    1
 43
0
 10
148
 20
374
 10
94
 20
374
 10
94
 20
300
 10
148
 20
300
  0
CIRCLE
  5
69
100
AcDbEntity
  8
text
  6
ByLayer
 62
  256
370
   -1
100
AcDbCircle
 10
114
 20
284
 40
0
  0
CIRCLE
  5
6A
100
AcDbEntity
  8
text
  6
ByLayer
 62
  256
370
   -1
100
AcDbCircle
 10
100
 20
232
 40
4
  0
CIRCLE
  5
6B
100
AcDbEntity
  8
text
  6
ByLayer
 62
  256
370
   -1
100
AcDbCircle
 10
100
 20
244
 40
4
  0
CIRCLE
  5
6C
100
AcDbEntity
  8
text
  6
ByLayer
 62
  256
370
   -1
100
AcDbCircle
 10
100
 20
220
 40
4
  0
TEXT
  5
6D
100
AcDbEntity
  8
text
  6
ByLayer
 62
  256
370
   -1
100
AcDbText
 10
106
 20
244
 30
0
 40
4
  1
VDD
 50
0
 41
1
 51
0
  7
iso
 71
    0
210
0
220
0
230
1
100
AcDbText
  0
TEXT
  5
6E
100
AcDbEntity
  8
text
  6
ByLayer
 62
  256
370
   -1
100
AcDbText
 10
106.4444444444445
 20
232
 30
0
 40
4
  1
GND
 50
0
 41
1
 51
0
  7
iso
 71
    0
210
0
220
0
230
1
100
AcDbText
  0
TEXT
  5
6F
100
AcDbEntity
  8
text
  6
ByLayer
 62
  256
370
   -1
100
AcDbText
 10
107.5555559795598
 20
220
 30
0
 40
4
  1
SIG
 50
0
 41
1
 51
0
  7
iso
 71
    0
210
0
220
0
230
1
100
AcDbText
  0
CIRCLE
  5
70
100
AcDbEntity
  8
text
  6
ByLayer
 62
  256
370
   -1
100
AcDbCircle
 10
142
 20
244
 40
4
  0
CIRCLE
  5
71
100
AcDbEntity
  8
text
  6
ByLayer
 62
  256
370
   -1
100
AcDbCircle
 10
142
 20
256
 40
4
  0
CIRCLE
  5
72
100
AcDbEntity
  8
text
  6
ByLayer
 62
  256
370
   -1
100
AcDbCircle
 10
142
 20
232
 40
4
  0
CIRCLE
  5
73
100
AcDbEntity
  8
text
  6
ByLayer
 62
  256
370
   -1
100
AcDbCircle
 10
142
 20
220
 40
4
  0
CIRCLE
  5
74
100
AcDbEntity
  8
text
  6
ByLayer
 62
  256
370
   -1
100
AcDbCircle
 10
142
 20
208
 40
4
  0
TEXT
  5
75
100
AcDbEntity
  8
text
  6
ByLayer
 62
  256
370
   -1
100
AcDbText
 10
127.3333337573375
 20
254
 30
0
 40
4
  1
5V
 50
0
 41
1
 51
0
  7
iso
 71
    0
210
0
220
0
230
1
100
AcDbText
  0
TEXT
  5
76
100
AcDbEntity
  8
text
  6
ByLayer
 62
  256
370
   -1
100
AcDbText
 10
126.6608490268543
 20
242.6746109877248
 30
0
 40
4
  1
GND
 50
0
 41
1
 51
0
  7
iso
 71
    0
210
0
220
0
230
1
100
AcDbText
  0
TEXT
  5
77
100
AcDbEntity
  8
text
  6
ByLayer
 62
  256
370
   -1
100
AcDbText
 10
126.4444452924531
 20
230
 30
0
 40
4
  1
SIG
 50
0
 41
1
 51
0
  7
iso
 71
    0
210
0
220
0
230
1
100
AcDbText
  0
TEXT
  5
78
100
AcDbEntity
  8
text
  6
ByLayer
 62
  256
370
   -1
100
AcDbText
 10
127.5621294218474
 20
218.963629767296
 30
0
 40
4
  1
VIN
 50
0
 41
1
 51
0
  7
iso
 71
    0
210
0
220
0
230
1
100
AcDbText
  0
TEXT
  5
79
100
AcDbEntity
  8
text
  6
ByLayer
 62
  256
370
   -1
100
AcDbText
 10
127.0300575119418
 20
206.8147999111138
 30
0
 40
4
  1
GND
 50
0
 41
1
 51
0
  7
iso
 71
    0
210
0
220
0
230
1
100
AcDbText
  0
LWPOLYLINE
  5
7A
100
AcDbEntity
  8
text
  6
ByLayer
 62
  256
370
   -1
100
AcDbPolyline
 90
    4
 70
    1
 43
0
 10
148
 20
274
 10
94
 20
274
 10
94
 20
200
 10
148
 20
200
  0
CIRCLE
  5
7B
100
AcDbEntity
  8
text
  6
ByLayer
 62
  256
370
   -1
100
AcDbCircle
 10
114
 20
184
 40
0
  0
CIRCLE
  5
7C
100
AcDbEntity
  8
text
  6
ByLayer
 62
  256
370
   -1
100
AcDbCircle
 10
100
 20
132
 40
4
  0
CIRCLE
  5
7D
100
AcDbEntity
  8
text
  6
ByLayer
 62
  256
370
   -1
100
AcDbCircle
 10
100
 20
144
 40
4
  0
CIRCLE
  5
7E
100
AcDbEntity
  8
text
  6
ByLayer
 62
  256
370
   -1
100
AcDbCircle
 10
100
 20
120
 40
4
  0
TEXT
  5
7F
100
AcDbEntity
  8
text
  6
ByLayer
 62
  256
370
   -1
100
AcDbText
 10
106
 20
144
 30
0
 40
4
  1
VDD
 50
0
 41
1
 51
0
  7
iso
 71
    0
210
0
220
0
230
1
100
AcDbText
  0
TEXT
  5
80
100
AcDbEntity
  8
text
  6
ByLayer
 62
  256
370
   -1
100
AcDbText
 10
106.4444444444445
 20
132
 30
0
 40
4
  1
GND
 50
0
 41
1
 51
0
  7
iso
 71
    0
210
0
220
0
230
1
100
AcDbText
  0
TEXT
  5
81
100
AcDbEntity
  8
text
  6
ByLayer
 62
  256
370
   -1
100
AcDbText
 10
107.5555559795598
 20
120
 30
0
 40
4
  1
SIG
 50
0
 41
1
 51
0
  7
iso
 71
    0
210
0
220
0
230
1
100
AcDbText
  0
CIRCLE
  5
82
100
AcDbEntity
  8
text
  6
ByLayer
 62
  256
370
   -1
100
AcDbCircle
 10
142
 20
144
 40
4
  0
CIRCLE
  5
83
100
AcDbEntity
  8
text
  6
ByLayer
 62
  256
370
   -1
100
AcDbCircle
 10
142
 20
156
 40
4
  0
CIRCLE
  5
84
100
AcDbEntity
  8
text
  6
ByLayer
 62
  256
370
   -1
100
AcDbCircle
 10
142
 20
132
 40
4
  0
CIRCLE
  5
85
100
AcDbEntity
  8
text
  6
ByLayer
 62
  256
370
   -1
100
AcDbCircle
 10
142
 20
120
 40
4
  0
CIRCLE
  5
86
100
AcDbEntity
  8
text
  6
ByLayer
 62
  256
370
   -1
100
AcDbCircle
 10
142
 20
108
 40
4
  0
TEXT
  5
87
100
AcDbEntity
  8
text
  6
ByLayer
 62
  256
370
   -1
100
AcDbText
 10
127.3333337573375
 20
154
 30
0
 40
4
  1
5V
 50
0
 41
1
 51
0
  7
iso
 71
    0
210
0
220
0
230
1
100
AcDbText
  0
TEXT
  5
88
100
AcDbEntity
  8
text
  6
ByLayer
 62
  256
370
   -1
100
AcDbText
 10
126.6608490268543
 20
142.6746109877248
 30
0
 40
4
  1
GND
 50
0
 41
1
 51
0
  7
iso
 71
    0
210
0
220
0
230
1
100
AcDbText
  0
TEXT
  5
89
100
AcDbEntity
  8
text
  6
ByLayer
 62
  256
370
   -1
100
AcDbText
 10
126.4444452924531
 20
130
 30
0
 40
4
  1
SIG
 50
0
 41
1
 51
0
  7
iso
 71
    0
210
0
220
0
230
1
100
AcDbText
  0
TEXT
  5
8A
100
AcDbEntity
  8
text
  6
ByLayer
 62
  256
370
   -1
100
AcDbText
 10
127.5621294218474
 20
118.9636297672959
 30
0
 40
4
  1
VIN
 50
0
 41
1
 51
0
  7
iso
 71
    0
210
0
220
0
230
1
100
AcDbText
  0
TEXT
  5
8B
100
AcDbEntity
  8
text
  6
ByLayer
 62
  256
370
   -1
100
AcDbText
 10
127.0300575119418
 20
106.8147999111139
 30
0
 40
4
  1
GND
 50
0
 41
1
 51
0
  7
iso
 71
    0
210
0
220
0
230
1
100
AcDbText
  0
LWPOLYLINE
  5
8C
100
AcDbEntity
  8
text
  6
ByLayer
 62
  256
370
   -1
100
AcDbPolyline
 90
    4
 70
    1
 43
0
 10
148
 20
174
 10
94
 20
174
 10
94
 20
100
 10
148
 20
100
  0
CIRCLE
  5
8D
100
AcDbEntity
  8
text
  6
ByLayer
 62
  256
370
   -1
100
AcDbCircle
 10
114
 20
84
 40
0
  0
CIRCLE
  5
8E
100
AcDbEntity
  8
text
  6
ByLayer
 62
  256
370
   -1
100
AcDbCircle
 10
100
 20
32.00000000000001
 40
4
  0
CIRCLE
  5
8F
100
AcDbEntity
  8
text
  6
ByLayer
 62
  256
370
   -1
100
AcDbCircle
 10
100
 20
44.00000000000001
 40
4
  0
CIRCLE
  5
90
100
AcDbEntity
  8
text
  6
ByLayer
 62
  256
370
   -1
100
AcDbCircle
 10
100
 20
20.00000000000001
 40
4
  0
TEXT
  5
91
100
AcDbEntity
  8
text
  6
ByLayer
 62
  256
370
   -1
100
AcDbText
 10
106
 20
44.00000000000001
 30
0
 40
4
  1
VDD
 50
0
 41
1
 51
0
  7
iso
 71
    0
210
0
220
0
230
1
100
AcDbText
  0
TEXT
  5
92
100
AcDbEntity
  8
text
  6
ByLayer
 62
  256
370
   -1
100
AcDbText
 10
106.4444444444445
 20
32.00000000000001
 30
0
 40
4
  1
GND
 50
0
 41
1
 51
0
  7
iso
 71
    0
210
0
220
0
230
1
100
AcDbText
  0
TEXT
  5
93
100
AcDbEntity
  8
text
  6
ByLayer
 62
  256
370
   -1
100
AcDbText
 10
107.5555559795598
 20
20.00000000000001
 30
0
 40
4
  1
SIG
 50
0
 41
1
 51
0
  7
iso
 71
    0
210
0
220
0
230
1
100
AcDbText
  0
CIRCLE
  5
94
100
AcDbEntity
  8
text
  6
ByLayer
 62
  256
370
   -1
100
AcDbCircle
 10
142
 20
44.00000000000001
 40
4
  0
CIRCLE
  5
95
100
AcDbEntity
  8
text
  6
ByLayer
 62
  256
370
   -1
100
AcDbCircle
 10
142
 20
56.00000000000001
 40
4
  0
CIRCLE
  5
96
100
AcDbEntity
  8
text
  6
ByLayer
 62
  256
370
   -1
100
AcDbCircle
 10
142
 20
32.00000000000001
 40
4
  0
CIRCLE
  5
97
100
AcDbEntity
  8
text
  6
ByLayer
 62
  256
370
   -1
100
AcDbCircle
 10
142
 20
20.00000000000001
 40
4
  0
CIRCLE
  5
98
100
AcDbEntity
  8
text
  6
ByLayer
 62
  256
370
   -1
100
AcDbCircle
 10
142
 20
8.000000000000007
 40
4
  0
TEXT
  5
99
100
AcDbEntity
  8
text
  6
ByLayer
 62
  256
370
   -1
100
AcDbText
 10
127.3333337573375
 20
54.00000000000001
 30
0
 40
4
  1
5V
 50
0
 41
1
 51
0
  7
iso
 71
    0
210
0
220
0
230
1
100
AcDbText
  0
TEXT
  5
9A
100
AcDbEntity
  8
text
  6
ByLayer
 62
  256
370
   -1
100
AcDbText
 10
126.6608490268543
 20
42.67461098772487
 30
0
 40
4
  1
GND
 50
0
 41
1
 51
0
  7
iso
 71
    0
210
0
220
0
230
1
100
AcDbText
  0
TEXT
  5
9B
100
AcDbEntity
  8
text
  6
ByLayer
 62
  256
370
   -1
100
AcDbText
 10
126.4444452924531
 20
30.00000000000001
 30
0
 40
4
  1
SIG
 50
0
 41
1
 51
0
  7
iso
 71
    0
210
0
220
0
230
1
100
AcDbText
  0
TEXT
  5
9C
100
AcDbEntity
  8
text
  6
ByLayer
 62
  256
370
   -1
100
AcDbText
 10
127.5621294218474
 20
18.96362976729598
 30
0
 40
4
  1
VIN
 50
0
 41
1
 51
0
  7
iso
 71
    0
210
0
220
0
230
1
100
AcDbText
  0
TEXT
  5
9D
100
AcDbEntity
  8
text
  6
ByLayer
 62
  256
370
   -1
100
AcDbText
 10
127.0300575119418
 20
6.814799911113887
 30
0
 40
4
  1
GND
 50
0
 41
1
 51
0
  7
iso
 71
    0
210
0
220
0
230
1
100
AcDbText
  0
LWPOLYLINE
  5
9E
100
AcDbEntity
  8
text
  6
ByLayer
 62
  256
370
   -1
100
AcDbPolyline
 90
    4
 70
    1
 43
0
 10
148
 20
74
 10
94
 20
74
 10
94
 20
7.105427357601002e-15
 10
148
 20
7.105427357601002e-15
  0
TEXT
  5
9F
100
AcDbEntity
  8
text
  6
ByLayer
 62
  256
370
   -1
100
AcDbText
 10
109.3333333333334
 20
164
 30
0
 40
6
  1
ESC DR
 50
0
 41
1
 51
0
  7
iso
 71
    0
210
0
220
0
230
1
100
AcDbText
  0
TEXT
  5
A0
100
AcDbEntity
  8
text
  6
ByLayer
 62
  256
370
   -1
100
AcDbText
 10
108.8333346053462
 20
64
 30
0
 40
6
  1
ESC DL
 50
0
 41
1
 51
0
  7
iso
 71
    0
210
0
220
0
230
1
100
AcDbText
  0
MTEXT
  5
A1
100
AcDbEntity
  8
text
  6
ByLayer
 62
  256
370
   -1
100
AcDbMText
 10
122
 20
266
 30
0
 40
6
 41
26.4999987279871
 71
    5
 72
    1
  1
ESC FL
  7
iso
210
0
220
0
230
1
 50
0
 73
    2
 44
1
  0
CIRCLE
  5
A2
100
AcDbEntity
  8
text
  6
ByLayer
 62
  256
370
   -1
100
AcDbCircle
 10
0
 20
340
 40
40
  0
CIRCLE
  5
A3
100
AcDbEntity
  8
text
  6
ByLayer
 62
  256
370
   -1
100
AcDbCircle
 10
0
 20
240
 40
40
  0
CIRCLE
  5
A4
100
AcDbEntity
  8
text
  6
ByLayer
 62
  256
370
   -1
100
AcDbCircle
 10
0
 20
140
 40
40
  0
CIRCLE
  5
A5
100
AcDbEntity
  8
text
  6
ByLayer
 62
  256
370
   -1
100
AcDbCircle
 10
0
 20
40.00000000000001
 40
40
  0
CIRCLE
  5
A6
100
AcDbEntity
  8
text
  6
ByLayer
 62
  256
370
   -1
100
AcDbCircle
 10
32
 20
354
 40
4
  0
CIRCLE
  5
A7
100
AcDbEntity
  8
text
  6
ByLayer
 62
  256
370
   -1
100
AcDbCircle
 10
32
 20
326
 40
4
  0
CIRCLE
  5
A8
100
AcDbEntity
  8
text
  6
ByLayer
 62
  256
370
   -1
100
AcDbCircle
 10
32
 20
340
 40
4
  0
MTEXT
  5
A9
100
AcDbEntity
  8
text
  6
ByLayer
 62
  256
370
   -1
100
AcDbMText
 10
20.72222222222221
 20
354
 30
0
 40
4
 41
13.66666666666667
 71
    5
 72
    1
  1
R PIN
  7
iso
210
0
220
0
230
1
 50
0
 73
    2
 44
1
  0
MTEXT
  5
AA
100
AcDbEntity
  8
text
  6
ByLayer
 62
  256
370
   -1
100
AcDbMText
 10
20
 20
340
 30
0
 40
4
 41
14.11111111111111
 71
    5
 72
    1
  1
M PIN
  7
iso
210
0
220
0
230
1
 50
0
 73
    2
 44
1
  0
MTEXT
  5
AB
100
AcDbEntity
  8
text
  6
ByLayer
 62
  256
370
   -1
100
AcDbMText
 10
20
 20
326
 30
0
 40
4
 41
13.22222222222222
 71
    5
 72
    1
  1
L PIN
  7
iso
210
0
220
0
230
1
 50
0
 73
    2
 44
1
  0
MTEXT
  5
AC
100
AcDbEntity
  8
text
  6
ByLayer
 62
  256
370
   -1
100
AcDbMText
 10
-23.25
 20
341
 30
0
 40
6
 41
18.5
 71
    5
 72
    1
  1
M FR
  7
iso
210
0
220
0
230
1
 50
0
 73
    2
 44
1
  0
MTEXT
  5
AD
100
AcDbEntity
  8
text
  6
ByLayer
 62
  256
370
   -1
100
AcDbMText
 10
-23.08333333333334
 20
241
 30
0
 40
6
 41
17.83333333333333
 71
    5
 72
    1
  1
M FL
  7
iso
210
0
220
0
230
1
 50
0
 73
    2
 44
1
  0
MTEXT
  5
AE
100
AcDbEntity
  8
text
  6
ByLayer
 62
  256
370
   -1
100
AcDbMText
 10
-24.41666666666648
 20
141
 30
0
 40
6
 41
19.16666666666704
 71
    5
 72
    1
  1
M DR
  7
iso
210
0
220
0
230
1
 50
0
 73
    2
 44
1
  0
MTEXT
  5
AF
100
AcDbEntity
  8
text
  6
ByLayer
 62
  256
370
   -1
100
AcDbMText
 10
-24.41666666666648
 20
41.00000000000001
 30
0
 40
6
 41
18.50000000000037
 71
    5
 72
    1
  1
M DL
  7
iso
210
0
220
0
230
1
 50
0
 73
    2
 44
1
  0
CIRCLE
  5
B0
100
AcDbEntity
  8
text
  6
ByLayer
 62
  256
370
   -1
100
AcDbCircle
 10
30
 20
254
 40
4
  0
CIRCLE
  5
B1
100
AcDbEntity
  8
text
  6
ByLayer
 62
  256
370
   -1
100
AcDbCircle
 10
30
 20
226
 40
4
  0
CIRCLE
  5
B2
100
AcDbEntity
  8
text
  6
ByLayer
 62
  256
370
   -1
100
AcDbCircle
 10
30
 20
240
 40
4
  0
MTEXT
  5
B3
100
AcDbEntity
  8
text
  6
ByLayer
 62
  256
370
   -1
100
AcDbMText
 10
18.72222222222221
 20
254
 30
0
 40
4
 41
13.66666666666667
 71
    5
 72
    1
  1
R PIN
  7
iso
210
0
220
0
230
1
 50
0
 73
    2
 44
1
  0
MTEXT
  5
B4
100
AcDbEntity
  8
text
  6
ByLayer
 62
  256
370
   -1
100
AcDbMText
 10
18
 20
240
 30
0
 40
4
 41
14.11111111111111
 71
    5
 72
    1
  1
M PIN
  7
iso
210
0
220
0
230
1
 50
0
 73
    2
 44
1
  0
MTEXT
  5
B5
100
AcDbEntity
  8
text
  6
ByLayer
 62
  256
370
   -1
100
AcDbMText
 10
18
 20
226
 30
0
 40
4
 41
13.22222222222222
 71
    5
 72
    1
  1
L PIN
  7
iso
210
0
220
0
230
1
 50
0
 73
    2
 44
1
  0
CIRCLE
  5
B6
100
AcDbEntity
  8
text
  6
ByLayer
 62
  256
370
   -1
100
AcDbCircle
 10
30
 20
154
 40
4
  0
CIRCLE
  5
B7
100
AcDbEntity
  8
text
  6
ByLayer
 62
  256
370
   -1
100
AcDbCircle
 10
30
 20
126
 40
4
  0
CIRCLE
  5
B8
100
AcDbEntity
  8
text
  6
ByLayer
 62
  256
370
   -1
100
AcDbCircle
 10
30
 20
140
 40
4
  0
MTEXT
  5
B9
100
AcDbEntity
  8
text
  6
ByLayer
 62
  256
370
   -1
100
AcDbMText
 10
18.72222222222221
 20
154
 30
0
 40
4
 41
13.66666666666667
 71
    5
 72
    1
  1
R PIN
  7
iso
210
0
220
0
230
1
 50
0
 73
    2
 44
1
  0
MTEXT
  5
BA
100
AcDbEntity
  8
text
  6
ByLayer
 62
  256
370
   -1
100
AcDbMText
 10
18
 20
140
 30
0
 40
4
 41
14.11111111111111
 71
    5
 72
    1
  1
M PIN
  7
iso
210
0
220
0
230
1
 50
0
 73
    2
 44
1
  0
MTEXT
  5
BB
100
AcDbEntity
  8
text
  6
ByLayer
 62
  256
370
   -1
100
AcDbMText
 10
18
 20
126
 30
0
 40
4
 41
13.22222222222222
 71
    5
 72
    1
  1
L PIN
  7
iso
210
0
220
0
230
1
 50
0
 73
    2
 44
1
  0
CIRCLE
  5
BC
100
AcDbEntity
  8
text
  6
ByLayer
 62
  256
370
   -1
100
AcDbCircle
 10
30
 20
54.00000000000001
 40
4
  0
CIRCLE
  5
BD
100
AcDbEntity
  8
text
  6
ByLayer
 62
  256
370
   -1
100
AcDbCircle
 10
30
 20
26.00000000000001
 40
4
  0
CIRCLE
  5
BE
100
AcDbEntity
  8
text
  6
ByLayer
 62
  256
370
   -1
100
AcDbCircle
 10
30
 20
40.00000000000001
 40
4
  0
MTEXT
  5
BF
100
AcDbEntity
  8
text
  6
ByLayer
 62
  256
370
   -1
100
AcDbMText
 10
18.72222222222221
 20
54.00000000000001
 30
0
 40
4
 41
13.66666666666667
 71
    5
 72
    1
  1
R PIN
  7
iso
210
0
220
0
230
1
 50
0
 73
    2
 44
1
  0
MTEXT
  5
C0
100
AcDbEntity
  8
text
  6
ByLayer
 62
  256
370
   -1
100
AcDbMText
 10
18
 20
40.00000000000001
 30
0
 40
4
 41
14.11111111111111
 71
    5
 72
    1
  1
M PIN
  7
iso
210
0
220
0
230
1
 50
0
 73
    2
 44
1
  0
MTEXT
  5
C1
100
AcDbEntity
  8
text
  6
ByLayer
 62
  256
370
   -1
100
AcDbMText
 10
18
 20
26.00000000000001
 30
0
 40
4
 41
13.22222222222222
 71
    5
 72
    1
  1
L PIN
  7
iso
210
0
220
0
230
1
 50
0
 73
    2
 44
1
  0
LWPOLYLINE
  5
C2
100
AcDbEntity
  8
text
  6
ByLayer
 62
  256
370
   -1
100
AcDbPolyline
 90
    4
 70
    1
 43
0
 10
200
 20
7.105427357601002e-15
 10
320
 20
7.105427357601002e-15
 10
320
 20
260
 10
200
 20
260
  0
MTEXT
  5
C3
100
AcDbEntity
  8
text
  6
ByLayer
 62
  256
370
   -1
100
AcDbMText
 10
259.0000006360066
 20
7.000000000000007
 30
0
 40
6
 41
60.66666539465489
 71
    5
 72
    1
  1
STM32F103C8T6
  7
iso
210
0
220
0
230
1
 50
0
 73
    2
 44
1
  0
CIRCLE
  5
C4
100
AcDbEntity
  8
text
  6
ByLayer
 62
  256
370
   -1
100
AcDbCircle
 10
210
 20
22.00000000000001
 40
4
  0
CIRCLE
  5
C5
100
AcDbEntity
  8
text
  6
ByLayer
 62
  256
370
   -1
100
AcDbCircle
 10
210
 20
34.00000000000001
 40
4
  0
CIRCLE
  5
C6
100
AcDbEntity
  8
text
  6
ByLayer
 62
  256
370
   -1
100
AcDbCircle
 10
210
 20
46.00000000000001
 40
4
  0
CIRCLE
  5
C7
100
AcDbEntity
  8
text
  6
ByLayer
 62
  256
370
   -1
100
AcDbCircle
 10
210
 20
58.00000000000001
 40
4
  0
CIRCLE
  5
C8
100
AcDbEntity
  8
text
  6
ByLayer
 62
  256
370
   -1
100
AcDbCircle
 10
210
 20
70
 40
4
  0
CIRCLE
  5
C9
100
AcDbEntity
  8
text
  6
ByLayer
 62
  256
370
   -1
100
AcDbCircle
 10
210
 20
82
 40
4
  0
CIRCLE
  5
CA
100
AcDbEntity
  8
text
  6
ByLayer
 62
  256
370
   -1
100
AcDbCircle
 10
210
 20
94
 40
4
  0
CIRCLE
  5
CB
100
AcDbEntity
  8
text
  6
ByLayer
 62
  256
370
   -1
100
AcDbCircle
 10
210
 20
106
 40
4
  0
CIRCLE
  5
CC
100
AcDbEntity
  8
text
  6
ByLayer
 62
  256
370
   -1
100
AcDbCircle
 10
210
 20
118
 40
4
  0
CIRCLE
  5
CD
100
AcDbEntity
  8
text
  6
ByLayer
 62
  256
370
   -1
100
AcDbCircle
 10
210
 20
130
 40
4
  0
CIRCLE
  5
CE
100
AcDbEntity
  8
text
  6
ByLayer
 62
  256
370
   -1
100
AcDbCircle
 10
210
 20
142
 40
4
  0
CIRCLE
  5
CF
100
AcDbEntity
  8
text
  6
ByLayer
 62
  256
370
   -1
100
AcDbCircle
 10
210
 20
154
 40
4
  0
CIRCLE
  5
D0
100
AcDbEntity
  8
text
  6
ByLayer
 62
  256
370
   -1
100
AcDbCircle
 10
210
 20
166
 40
4
  0
CIRCLE
  5
D1
100
AcDbEntity
  8
text
  6
ByLayer
 62
  256
370
   -1
100
AcDbCircle
 10
210
 20
178
 40
4
  0
CIRCLE
  5
D2
100
AcDbEntity
  8
text
  6
ByLayer
 62
  256
370
   -1
100
AcDbCircle
 10
210
 20
190
 40
4
  0
CIRCLE
  5
D3
100
AcDbEntity
  8
text
  6
ByLayer
 62
  256
370
   -1
100
AcDbCircle
 10
210
 20
202
 40
4
  0
CIRCLE
  5
D4
100
AcDbEntity
  8
text
  6
ByLayer
 62
  256
370
   -1
100
AcDbCircle
 10
210
 20
214
 40
4
  0
CIRCLE
  5
D5
100
AcDbEntity
  8
text
  6
ByLayer
 62
  256
370
   -1
100
AcDbCircle
 10
210
 20
226
 40
4
  0
CIRCLE
  5
D6
100
AcDbEntity
  8
text
  6
ByLayer
 62
  256
370
   -1
100
AcDbCircle
 10
210
 20
238
 40
4
  0
CIRCLE
  5
D7
100
AcDbEntity
  8
text
  6
ByLayer
 62
  256
370
   -1
100
AcDbCircle
 10
210
 20
250
 40
4
  0
TEXT
  5
D8
100
AcDbEntity
  8
text
  6
ByLayer
 62
  256
370
   -1
100
AcDbText
 10
216
 20
20.00000000000001
 30
0
 40
4
  1
VB
 50
0
 41
1
 51
0
  7
iso
 71
    0
210
0
220
0
230
1
100
AcDbText
  0
TEXT
  5
D9
100
AcDbEntity
  8
text
  6
ByLayer
 62
  256
370
   -1
100
AcDbText
 10
216
 20
32.00000000000001
 30
0
 40
4
  1
C13
 50
0
 41
1
 51
0
  7
iso
 71
    0
210
0
220
0
230
1
100
AcDbText
  0
TEXT
  5
DA
100
AcDbEntity
  8
text
  6
ByLayer
 62
  256
370
   -1
100
AcDbText
 10
216
 20
44.00000000000001
 30
0
 40
4
  1
C14
 50
0
 41
1
 51
0
  7
iso
 71
    0
210
0
220
0
230
1
100
AcDbText
  0
TEXT
  5
DB
100
AcDbEntity
  8
text
  6
ByLayer
 62
  256
370
   -1
100
AcDbText
 10
216
 20
56.00000000000001
 30
0
 40
4
  1
C15
 50
0
 41
1
 51
0
  7
iso
 71
    0
210
0
220
0
230
1
100
AcDbText
  0
TEXT
  5
DC
100
AcDbEntity
  8
text
  6
ByLayer
 62
  256
370
   -1
100
AcDbText
 10
216
 20
68
 30
0
 40
4
  1
A0
 50
0
 41
1
 51
0
  7
iso
 71
    0
210
0
220
0
230
1
100
AcDbText
  0
TEXT
  5
DD
100
AcDbEntity
  8
text
  6
ByLayer
 62
  256
370
   -1
100
AcDbText
 10
216
 20
80
 30
0
 40
4
  1
A1
 50
0
 41
1
 51
0
  7
iso
 71
    0
210
0
220
0
230
1
100
AcDbText
  0
TEXT
  5
DE
100
AcDbEntity
  8
text
  6
ByLayer
 62
  256
370
   -1
100
AcDbText
 10
216
 20
92
 30
0
 40
4
  1
A2
 50
0
 41
1
 51
0
  7
iso
 71
    0
210
0
220
0
230
1
100
AcDbText
  0
TEXT
  5
DF
100
AcDbEntity
  8
text
  6
ByLayer
 62
  256
370
   -1
100
AcDbText
 10
216
 20
104.0000000000002
 30
0
 40
4
  1
A3
 50
0
 41
1
 51
0
  7
iso
 71
    0
210
0
220
0
230
1
100
AcDbText
  0
TEXT
  5
E0
100
AcDbEntity
  8
text
  6
ByLayer
 62
  256
370
   -1
100
AcDbText
 10
216
 20
116
 30
0
 40
4
  1
A4
 50
0
 41
1
 51
0
  7
iso
 71
    0
210
0
220
0
230
1
100
AcDbText
  0
TEXT
  5
E1
100
AcDbEntity
  8
text
  6
ByLayer
 62
  256
370
   -1
100
AcDbText
 10
216
 20
128.0000000000002
 30
0
 40
4
  1
A5
 50
0
 41
1
 51
0
  7
iso
 71
    0
210
0
220
0
230
1
100
AcDbText
  0
TEXT
  5
E2
100
AcDbEntity
  8
text
  6
ByLayer
 62
  256
370
   -1
100
AcDbText
 10
216
 20
140
 30
0
 40
4
  1
A6
 50
0
 41
1
 51
0
  7
iso
 71
    0
210
0
220
0
230
1
100
AcDbText
  0
TEXT
  5
E3
100
AcDbEntity
  8
text
  6
ByLayer
 62
  256
370
   -1
100
AcDbText
 10
216
 20
152
 30
0
 40
4
  1
A7
 50
0
 41
1
 51
0
  7
iso
 71
    0
210
0
220
0
230
1
100
AcDbText
  0
TEXT
  5
E4
100
AcDbEntity
  8
text
  6
ByLayer
 62
  256
370
   -1
100
AcDbText
 10
216
 20
164
 30
0
 40
4
  1
B0
 50
0
 41
1
 51
0
  7
iso
 71
    0
210
0
220
0
230
1
100
AcDbText
  0
TEXT
  5
E5
100
AcDbEntity
  8
text
  6
ByLayer
 62
  256
370
   -1
100
AcDbText
 10
216
 20
176
 30
0
 40
4
  1
B1
 50
0
 41
1
 51
0
  7
iso
 71
    0
210
0
220
0
230
1
100
AcDbText
  0
TEXT
  5
E6
100
AcDbEntity
  8
text
  6
ByLayer
 62
  256
370
   -1
100
AcDbText
 10
216
 20
188
 30
0
 40
4
  1
B10
 50
0
 41
1
 51
0
  7
iso
 71
    0
210
0
220
0
230
1
100
AcDbText
  0
TEXT
  5
E7
100
AcDbEntity
  8
text
  6
ByLayer
 62
  256
370
   -1
100
AcDbText
 10
216
 20
200
 30
0
 40
4
  1
B11
 50
0
 41
1
 51
0
  7
iso
 71
    0
210
0
220
0
230
1
100
AcDbText
  0
TEXT
  5
E8
100
AcDbEntity
  8
text
  6
ByLayer
 62
  256
370
   -1
100
AcDbText
 10
216
 20
212.0000000000004
 30
0
 40
4
  1
RST
 50
0
 41
1
 51
0
  7
iso
 71
    0
210
0
220
0
230
1
100
AcDbText
  0
TEXT
  5
E9
100
AcDbEntity
  8
text
  6
ByLayer
 62
  256
370
   -1
100
AcDbText
 10
216
 20
224.0000000000002
 30
0
 40
4
  1
3.3V
 50
0
 41
1
 51
0
  7
iso
 71
    0
210
0
220
0
230
1
100
AcDbText
  0
TEXT
  5
EA
100
AcDbEntity
  8
text
  6
ByLayer
 62
  256
370
   -1
100
AcDbText
 10
216
 20
236
 30
0
 40
4
  1
GND
 50
0
 41
1
 51
0
  7
iso
 71
    0
210
0
220
0
230
1
100
AcDbText
  0
TEXT
  5
EB
100
AcDbEntity
  8
text
  6
ByLayer
 62
  256
370
   -1
100
AcDbText
 10
216
 20
248
 30
0
 40
4
  1
GND
 50
0
 41
1
 51
0
  7
iso
 71
    0
210
0
220
0
230
1
100
AcDbText
  0
CIRCLE
  5
EC
100
AcDbEntity
  8
text
  6
ByLayer
 62
  256
370
   -1
100
AcDbCircle
 10
310
 20
22.00000000000001
 40
4
  0
CIRCLE
  5
ED
100
AcDbEntity
  8
text
  6
ByLayer
 62
  256
370
   -1
100
AcDbCircle
 10
310
 20
34.00000000000001
 40
4
  0
CIRCLE
  5
EE
100
AcDbEntity
  8
text
  6
ByLayer
 62
  256
370
   -1
100
AcDbCircle
 10
310
 20
46.00000000000001
 40
4
  0
CIRCLE
  5
EF
100
AcDbEntity
  8
text
  6
ByLayer
 62
  256
370
   -1
100
AcDbCircle
 10
310
 20
58.00000000000001
 40
4
  0
CIRCLE
  5
F0
100
AcDbEntity
  8
text
  6
ByLayer
 62
  256
370
   -1
100
AcDbCircle
 10
310
 20
70
 40
4
  0
CIRCLE
  5
F1
100
AcDbEntity
  8
text
  6
ByLayer
 62
  256
370
   -1
100
AcDbCircle
 10
310
 20
82
 40
4
  0
CIRCLE
  5
F2
100
AcDbEntity
  8
text
  6
ByLayer
 62
  256
370
   -1
100
AcDbCircle
 10
310
 20
94
 40
4
  0
CIRCLE
  5
F3
100
AcDbEntity
  8
text
  6
ByLayer
 62
  256
370
   -1
100
AcDbCircle
 10
310
 20
106
 40
4
  0
CIRCLE
  5
F4
100
AcDbEntity
  8
text
  6
ByLayer
 62
  256
370
   -1
100
AcDbCircle
 10
310
 20
118
 40
4
  0
CIRCLE
  5
F5
100
AcDbEntity
  8
text
  6
ByLayer
 62
  256
370
   -1
100
AcDbCircle
 10
310
 20
130
 40
4
  0
CIRCLE
  5
F6
100
AcDbEntity
  8
text
  6
ByLayer
 62
  256
370
   -1
100
AcDbCircle
 10
310
 20
142
 40
4
  0
CIRCLE
  5
F7
100
AcDbEntity
  8
text
  6
ByLayer
 62
  256
370
   -1
100
AcDbCircle
 10
310
 20
154
 40
4
  0
CIRCLE
  5
F8
100
AcDbEntity
  8
text
  6
ByLayer
 62
  256
370
   -1
100
AcDbCircle
 10
310
 20
166
 40
4
  0
CIRCLE
  5
F9
100
AcDbEntity
  8
text
  6
ByLayer
 62
  256
370
   -1
100
AcDbCircle
 10
310
 20
178
 40
4
  0
CIRCLE
  5
FA
100
AcDbEntity
  8
text
  6
ByLayer
 62
  256
370
   -1
100
AcDbCircle
 10
310
 20
190
 40
4
  0
CIRCLE
  5
FB
100
AcDbEntity
  8
text
  6
ByLayer
 62
  256
370
   -1
100
AcDbCircle
 10
310
 20
202
 40
4
  0
CIRCLE
  5
FC
100
AcDbEntity
  8
text
  6
ByLayer
 62
  256
370
   -1
100
AcDbCircle
 10
310
 20
214
 40
4
  0
CIRCLE
  5
FD
100
AcDbEntity
  8
text
  6
ByLayer
 62
  256
370
   -1
100
AcDbCircle
 10
310
 20
226
 40
4
  0
CIRCLE
  5
FE
100
AcDbEntity
  8
text
  6
ByLayer
 62
  256
370
   -1
100
AcDbCircle
 10
310
 20
238
 40
4
  0
CIRCLE
  5
FF
100
AcDbEntity
  8
text
  6
ByLayer
 62
  256
370
   -1
100
AcDbCircle
 10
310
 20
250
 40
4
  0
TEXT
  5
100
100
AcDbEntity
  8
text
  6
ByLayer
 62
  256
370
   -1
100
AcDbText
 10
304
 20
20.00000000000023
 30
0
 40
4
  1
3.3V
 50
0
 41
1
 51
0
  7
iso
 71
    0
 72
    2
 11
304
 21
20.00000000000023
 31
0
210
0
220
0
230
1
100
AcDbText
  0
TEXT
  5
101
100
AcDbEntity
  8
text
  6
ByLayer
 62
  256
370
   -1
100
AcDbText
 10
304
 20
32.00000000000001
 30
0
 40
4
  1
GND
 50
0
 41
1
 51
0
  7
iso
 71
    0
 72
    2
 11
304
 21
32.00000000000001
 31
0
210
0
220
0
230
1
100
AcDbText
  0
TEXT
  5
102
100
AcDbEntity
  8
text
  6
ByLayer
 62
  256
370
   -1
100
AcDbText
 10
304
 20
44.00000000000023
 30
0
 40
4
  1
5V
 50
0
 41
1
 51
0
  7
iso
 71
    0
 72
    2
 11
304
 21
44.00000000000023
 31
0
210
0
220
0
230
1
100
AcDbText
  0
TEXT
  5
103
100
AcDbEntity
  8
text
  6
ByLayer
 62
  256
370
   -1
100
AcDbText
 10
304
 20
56.00000000000001
 30
0
 40
4
  1
B9
 50
0
 41
1
 51
0
  7
iso
 71
    0
 72
    2
 11
304
 21
56.00000000000001
 31
0
210
0
220
0
230
1
100
AcDbText
  0
TEXT
  5
104
100
AcDbEntity
  8
text
  6
ByLayer
 62
  256
370
   -1
100
AcDbText
 10
304
 20
68
 30
0
 40
4
  1
B8
 50
0
 41
1
 51
0
  7
iso
 71
    0
 72
    2
 11
304
 21
68
 31
0
210
0
220
0
230
1
100
AcDbText
  0
TEXT
  5
105
100
AcDbEntity
  8
text
  6
ByLayer
 62
  256
370
   -1
100
AcDbText
 10
304
 20
80
 30
0
 40
4
  1
B7
 50
0
 41
1
 51
0
  7
iso
 71
    0
 72
    2
 11
304
 21
80
 31
0
210
0
220
0
230
1
100
AcDbText
  0
TEXT
  5
106
100
AcDbEntity
  8
text
  6
ByLayer
 62
  256
370
   -1
100
AcDbText
 10
304
 20
92
 30
0
 40
4
  1
B6
 50
0
 41
1
 51
0
  7
iso
 71
    0
 72
    2
 11
304
 21
92
 31
0
210
0
220
0
230
1
100
AcDbText
  0
TEXT
  5
107
100
AcDbEntity
  8
text
  6
ByLayer
 62
  256
370
   -1
100
AcDbText
 10
304
 20
104.0000000000002
 30
0
 40
4
  1
B5
 50
0
 41
1
 51
0
  7
iso
 71
    0
 72
    2
 11
304
 21
104.0000000000002
 31
0
210
0
220
0
230
1
100
AcDbText
  0
TEXT
  5
108
100
AcDbEntity
  8
text
  6
ByLayer
 62
  256
370
   -1
100
AcDbText
 10
304
 20
116
 30
0
 40
4
  1
B4
 50
0
 41
1
 51
0
  7
iso
 71
    0
 72
    2
 11
304
 21
116
 31
0
210
0
220
0
230
1
100
AcDbText
  0
TEXT
  5
109
100
AcDbEntity
  8
text
  6
ByLayer
 62
  256
370
   -1
100
AcDbText
 10
304
 20
128.0000000000002
 30
0
 40
4
  1
B3
 50
0
 41
1
 51
0
  7
iso
 71
    0
 72
    2
 11
304
 21
128.0000000000002
 31
0
210
0
220
0
230
1
100
AcDbText
  0
TEXT
  5
10A
100
AcDbEntity
  8
text
  6
ByLayer
 62
  256
370
   -1
100
AcDbText
 10
304
 20
140.0000000000002
 30
0
 40
4
  1
A15
 50
0
 41
1
 51
0
  7
iso
 71
    0
 72
    2
 11
304
 21
140.0000000000002
 31
0
210
0
220
0
230
1
100
AcDbText
  0
TEXT
  5
10B
100
AcDbEntity
  8
text
  6
ByLayer
 62
  256
370
   -1
100
AcDbText
 10
304
 20
152
 30
0
 40
4
  1
A12
 50
0
 41
1
 51
0
  7
iso
 71
    0
 72
    2
 11
304
 21
152
 31
0
210
0
220
0
230
1
100
AcDbText
  0
TEXT
  5
10C
100
AcDbEntity
  8
text
  6
ByLayer
 62
  256
370
   -1
100
AcDbText
 10
304
 20
164
 30
0
 40
4
  1
A11
 50
0
 41
1
 51
0
  7
iso
 71
    0
 72
    2
 11
304
 21
164
 31
0
210
0
220
0
230
1
100
AcDbText
  0
TEXT
  5
10D
100
AcDbEntity
  8
text
  6
ByLayer
 62
  256
370
   -1
100
AcDbText
 10
304
 20
176
 30
0
 40
4
  1
A10
 50
0
 41
1
 51
0
  7
iso
 71
    0
 72
    2
 11
304
 21
176
 31
0
210
0
220
0
230
1
100
AcDbText
  0
TEXT
  5
10E
100
AcDbEntity
  8
text
  6
ByLayer
 62
  256
370
   -1
100
AcDbText
 10
304
 20
188
 30
0
 40
4
  1
A9
 50
0
 41
1
 51
0
  7
iso
 71
    0
 72
    2
 11
304
 21
188
 31
0
210
0
220
0
230
1
100
AcDbText
  0
TEXT
  5
10F
100
AcDbEntity
  8
text
  6
ByLayer
 62
  256
370
   -1
100
AcDbText
 10
304
 20
200
 30
0
 40
4
  1
A8
 50
0
 41
1
 51
0
  7
iso
 71
    0
 72
    2
 11
304
 21
200
 31
0
210
0
220
0
230
1
100
AcDbText
  0
TEXT
  5
110
100
AcDbEntity
  8
text
  6
ByLayer
 62
  256
370
   -1
100
AcDbText
 10
304
 20
212.0000000000002
 30
0
 40
4
  1
B15
 50
0
 41
1
 51
0
  7
iso
 71
    0
 72
    2
 11
304
 21
212.0000000000002
 31
0
210
0
220
0
230
1
100
AcDbText
  0
TEXT
  5
111
100
AcDbEntity
  8
text
  6
ByLayer
 62
  256
370
   -1
100
AcDbText
 10
304
 20
224
 30
0
 40
4
  1
B14
 50
0
 41
1
 51
0
  7
iso
 71
    0
 72
    2
 11
304
 21
224
 31
0
210
0
220
0
230
1
100
AcDbText
  0
TEXT
  5
112
100
AcDbEntity
  8
text
  6
ByLayer
 62
  256
370
   -1
100
AcDbText
 10
304
 20
236.0000000000002
 30
0
 40
4
  1
B13
 50
0
 41
1
 51
0
  7
iso
 71
    0
 72
    2
 11
304
 21
236.0000000000002
 31
0
210
0
220
0
230
1
100
AcDbText
  0
TEXT
  5
113
100
AcDbEntity
  8
text
  6
ByLayer
 62
  256
370
   -1
100
AcDbText
 10
304
 20
248
 30
0
 40
4
  1
B12
 50
0
 41
1
 51
0
  7
iso
 71
    0
 72
    2
 11
304
 21
248
 31
0
210
0
220
0
230
1
100
AcDbText
  0
LWPOLYLINE
  5
114
100
AcDbEntity
  8
text
  6
ByLayer
 62
  256
370
   -1
100
AcDbPolyline
 90
    4
 70
    1
 43
0
 10
180
 20
380
 10
360
 20
380
 10
360
 20
300
 10
180
 20
300
  0
MTEXT
  5
115
100
AcDbEntity
  8
text
  6
ByLayer
 62
  256
370
   -1
100
AcDbMText
 10
269.5000000000002
 20
345
 30
0
 40
6
 41
68.6666666666674
 71
    5
 72
    1
  1
LIPO 3S\P3 X 4.2v = 12.6V\P20C | 2200mAh
  7
iso
210
0
220
0
230
1
 50
0
 73
    2
 44
1
  0
CIRCLE
  5
116
100
AcDbEntity
  8
text
  6
ByLayer
 62
  256
370
   -1
100
AcDbCircle
 10
352
 20
366
 40
4
  0
CIRCLE
  5
117
100
AcDbEntity
  8
text
  6
ByLayer
 62
  256
370
   -1
100
AcDbCircle
 10
352
 20
354
 40
4
  0
MTEXT
  5
118
100
AcDbEntity
  8
text
  6
ByLayer
 62
  256
370
   -1
100
AcDbMText
 10
342
 20
366
 30
0
 40
4
 41
7.555555555555555
 71
    5
 72
    1
  1
VIN
  7
iso
210
0
220
0
230
1
 50
0
 73
    2
 44
1
  0
MTEXT
  5
119
100
AcDbEntity
  8
text
  6
ByLayer
 62
  256
370
   -1
100
AcDbMText
 10
342
 20
354
 30
0
 40
4
 41
9.33333333333383
 71
    5
 72
    1
  1
GND
  7
iso
210
0
220
0
230
1
 50
0
 73
    2
 44
1
  0
LWPOLYLINE
  5
11A
100
AcDbEntity
  8
text
  6
ByLayer
 62
  256
370
   -1
100
AcDbPolyline
 90
    4
 70
    1
 43
0
 10
400
 20
380
 10
500
 20
380
 10
500
 20
240
 10
400
 20
240
  0
MTEXT
  5
11B
100
AcDbEntity
  8
text
  6
ByLayer
 62
  256
370
   -1
100
AcDbMText
 10
449
 20
371
 30
0
 40
6
 41
35.33333333333333
 71
    5
 72
    1
  1
RECEIVER
  7
iso
210
0
220
0
230
1
 50
0
 73
    2
 44
1
  0
CIRCLE
  5
11C
100
AcDbEntity
  8
text
  6
ByLayer
 62
  256
370
   -1
100
AcDbCircle
 10
408
 20
266
 40
4
  0
CIRCLE
  5
11D
100
AcDbEntity
  8
text
  6
ByLayer
 62
  256
370
   -1
100
AcDbCircle
 10
408
 20
256
 40
4
  0
CIRCLE
  5
11E
100
AcDbEntity
  8
text
  6
ByLayer
 62
  256
370
   -1
100
AcDbCircle
 10
408
 20
246
 40
4
  0
CIRCLE
  5
11F
100
AcDbEntity
  8
text
  6
ByLayer
 62
  256
370
   -1
100
AcDbCircle
 10
422
 20
266
 40
4
  0
CIRCLE
  5
120
100
AcDbEntity
  8
text
  6
ByLayer
 62
  256
370
   -1
100
AcDbCircle
 10
422
 20
256
 40
4
  0
CIRCLE
  5
121
100
AcDbEntity
  8
text
  6
ByLayer
 62
  256
370
   -1
100
AcDbCircle
 10
422
 20
246
 40
4
  0
CIRCLE
  5
122
100
AcDbEntity
  8
text
  6
ByLayer
 62
  256
370
   -1
100
AcDbCircle
 10
436
 20
266
 40
4
  0
CIRCLE
  5
123
100
AcDbEntity
  8
text
  6
ByLayer
 62
  256
370
   -1
100
AcDbCircle
 10
436
 20
256
 40
4
  0
CIRCLE
  5
124
100
AcDbEntity
  8
text
  6
ByLayer
 62
  256
370
   -1
100
AcDbCircle
 10
436
 20
246
 40
4
  0
CIRCLE
  5
125
100
AcDbEntity
  8
text
  6
ByLayer
 62
  256
370
   -1
100
AcDbCircle
 10
450
 20
266
 40
4
  0
CIRCLE
  5
126
100
AcDbEntity
  8
text
  6
ByLayer
 62
  256
370
   -1
100
AcDbCircle
 10
450
 20
256
 40
4
  0
CIRCLE
  5
127
100
AcDbEntity
  8
text
  6
ByLayer
 62
  256
370
   -1
100
AcDbCircle
 10
450
 20
246
 40
4
  0
CIRCLE
  5
128
100
AcDbEntity
  8
text
  6
ByLayer
 62
  256
370
   -1
100
AcDbCircle
 10
464
 20
266
 40
4
  0
CIRCLE
  5
129
100
AcDbEntity
  8
text
  6
ByLayer
 62
  256
370
   -1
100
AcDbCircle
 10
464
 20
256
 40
4
  0
CIRCLE
  5
12A
100
AcDbEntity
  8
text
  6
ByLayer
 62
  256
370
   -1
100
AcDbCircle
 10
464
 20
246
 40
4
  0
CIRCLE
  5
12B
100
AcDbEntity
  8
text
  6
ByLayer
 62
  256
370
   -1
100
AcDbCircle
 10
478
 20
266
 40
4
  0
CIRCLE
  5
12C
100
AcDbEntity
  8
text
  6
ByLayer
 62
  256
370
   -1
100
AcDbCircle
 10
478
 20
256
 40
4
  0
CIRCLE
  5
12D
100
AcDbEntity
  8
text
  6
ByLayer
 62
  256
370
   -1
100
AcDbCircle
 10
478
 20
246
 40
4
  0
CIRCLE
  5
12E
100
AcDbEntity
  8
text
  6
ByLayer
 62
  256
370
   -1
100
AcDbCircle
 10
492
 20
266
 40
4
  0
CIRCLE
  5
12F
100
AcDbEntity
  8
text
  6
ByLayer
 62
  256
370
   -1
100
AcDbCircle
 10
492
 20
256
 40
4
  0
CIRCLE
  5
130
100
AcDbEntity
  8
text
  6
ByLayer
 62
  256
370
   -1
100
AcDbCircle
 10
492
 20
246
 40
4
  0
MTEXT
  5
131
100
AcDbEntity
  8
text
  6
ByLayer
 62
  256
370
   -1
100
AcDbMText
 10
408
 20
274
 30
0
 40
4
 41
7.555555555555804
 71
    5
 72
    1
  1
CH1
  7
iso
210
0
220
0
230
1
 50
0
 73
    2
 44
1
  0
MTEXT
  5
132
100
AcDbEntity
  8
text
  6
ByLayer
 62
  256
370
   -1
100
AcDbMText
 10
422
 20
274
 30
0
 40
4
 41
8.444444444444692
 71
    5
 72
    1
  1
CH2
  7
iso
210
0
220
0
230
1
 50
0
 73
    2
 44
1
  0
MTEXT
  5
133
100
AcDbEntity
  8
text
  6
ByLayer
 62
  256
370
   -1
100
AcDbMText
 10
436
 20
274
 30
0
 40
4
 41
8.44444444444494
 71
    5
 72
    1
  1
CH3
  7
iso
210
0
220
0
230
1
 50
0
 73
    2
 44
1
  0
MTEXT
  5
134
100
AcDbEntity
  8
text
  6
ByLayer
 62
  256
370
   -1
100
AcDbMText
 10
450
 20
274
 30
0
 40
4
 41
8.888888888889136
 71
    5
 72
    1
  1
CH4
  7
iso
210
0
220
0
230
1
 50
0
 73
    2
 44
1
  0
MTEXT
  5
135
100
AcDbEntity
  8
text
  6
ByLayer
 62
  256
370
   -1
100
AcDbMText
 10
464
 20
274
 30
0
 40
4
 41
8.44444444444494
 71
    5
 72
    1
  1
CH5
  7
iso
210
0
220
0
230
1
 50
0
 73
    2
 44
1
  0
MTEXT
  5
136
100
AcDbEntity
  8
text
  6
ByLayer
 62
  256
370
   -1
100
AcDbMText
 10
478
 20
274
 30
0
 40
4
 41
8.44444444444494
 71
    5
 72
    1
  1
CH6
  7
iso
210
0
220
0
230
1
 50
0
 73
    2
 44
1
  0
MTEXT
  5
137
100
AcDbEntity
  8
text
  6
ByLayer
 62
  256
370
   -1
100
AcDbMText
 10
492
 20
274
 30
0
 40
4
 41
5.777777777778025
 71
    5
 72
    1
  1
5V
  7
iso
210
0
220
0
230
1
 50
0
 73
    2
 44
1
  0
LINE
  5
138
100
AcDbEntity
  8
sig
  6
ByLayer
 62
  256
370
   -1
100
AcDbLine
 10
100
 20
320
 11
58
 21
320
  0
LINE
  5
139
100
AcDbEntity
  8
sig
  6
ByLayer
 62
  256
370
   -1
100
AcDbLine
 10
58
 20
320
 11
58
 21
340
  0
LINE
  5
13A
100
AcDbEntity
  8
sig
  6
ByLayer
 62
  256
370
   -1
100
AcDbLine
 10
58
 20
340
 11
32
 21
340
  0
LINE
  5
13B
100
AcDbEntity
  8
sig
  6
ByLayer
 62
  256
370
   -1
100
AcDbLine
 10
100
 20
220
 11
56
 21
220
  0
LINE
  5
13C
100
AcDbEntity
  8
sig
  6
ByLayer
 62
  256
370
   -1
100
AcDbLine
 10
56
 20
220
 11
56
 21
240
  0
LINE
  5
13D
100
AcDbEntity
  8
sig
  6
ByLayer
 62
  256
370
   -1
100
AcDbLine
 10
56
 20
240
 11
30
 21
240
  0
LINE
  5
13E
100
AcDbEntity
  8
sig
  6
ByLayer
 62
  256
370
   -1
100
AcDbLine
 10
100
 20
120
 11
54
 21
120
  0
LINE
  5
13F
100
AcDbEntity
  8
sig
  6
ByLayer
 62
  256
370
   -1
100
AcDbLine
 10
54
 20
120
 11
54
 21
140
  0
LINE
  5
140
100
AcDbEntity
  8
sig
  6
ByLayer
 62
  256
370
   -1
100
AcDbLine
 10
54
 20
140
 11
30
 21
140
  0
LINE
  5
141
100
AcDbEntity
  8
sig
  6
ByLayer
 62
  256
370
   -1
100
AcDbLine
 10
310
 20
94
 11
344
 21
94
  0
LINE
  5
142
100
AcDbEntity
  8
sig
  6
ByLayer
 62
  256
370
   -1
100
AcDbLine
 10
312
 20
82
 11
310
 21
82
  0
LINE
  5
143
100
AcDbEntity
  8
sig
  6
ByLayer
 62
  256
370
   -1
100
AcDbLine
 10
328
 20
-3.999999999999993
 11
328
 21
82
  0
LINE
  5
144
100
AcDbEntity
  8
sig
  6
ByLayer
 62
  256
370
   -1
100
AcDbLine
 10
328
 20
82
 11
312
 21
82
  0
LINE
  5
145
100
AcDbEntity
  8
sig
  6
ByLayer
 62
  256
370
   -1
100
AcDbLine
 10
142
 20
232
 11
182
 21
232
  0
LINE
  5
146
100
AcDbEntity
  8
sig
  6
ByLayer
 62
  256
370
   -1
100
AcDbLine
 10
338
 20
58.00000000000001
 11
310
 21
58.00000000000001
  0
LINE
  5
147
100
AcDbEntity
  8
sig
  6
ByLayer
 62
  256
370
   -1
100
AcDbLine
 10
352
 20
70
 11
310
 21
70
  0
LINE
  5
148
100
AcDbEntity
  8
red
  6
ByLayer
 62
  256
370
   -1
100
AcDbLine
 10
32
 20
354
 11
86
 21
354
  0
LINE
  5
149
100
AcDbEntity
  8
red
  6
ByLayer
 62
  256
370
   -1
100
AcDbLine
 10
86
 20
354
 11
86
 21
344
  0
LINE
  5
14A
100
AcDbEntity
  8
red
  6
ByLayer
 62
  256
370
   -1
100
AcDbLine
 10
86
 20
344
 11
100
 21
344
  0
LINE
  5
14B
100
AcDbEntity
  8
red
  6
ByLayer
 62
  256
370
   -1
100
AcDbLine
 10
30
 20
254
 11
68
 21
254
  0
LINE
  5
14C
100
AcDbEntity
  8
red
  6
ByLayer
 62
  256
370
   -1
100
AcDbLine
 10
68
 20
254
 11
68
 21
244
  0
LINE
  5
14D
100
AcDbEntity
  8
red
  6
ByLayer
 62
  256
370
   -1
100
AcDbLine
 10
68
 20
244
 11
100
 21
244
  0
LINE
  5
14E
100
AcDbEntity
  8
red
  6
ByLayer
 62
  256
370
   -1
100
AcDbLine
 10
30
 20
154
 11
64
 21
154
  0
LINE
  5
14F
100
AcDbEntity
  8
red
  6
ByLayer
 62
  256
370
   -1
100
AcDbLine
 10
64
 20
154
 11
64
 21
144
  0
LINE
  5
150
100
AcDbEntity
  8
red
  6
ByLayer
 62
  256
370
   -1
100
AcDbLine
 10
64
 20
144
 11
100
 21
144
  0
LINE
  5
151
100
AcDbEntity
  8
brown
  6
ByLayer
 62
  256
370
   -1
100
AcDbLine
 10
30
 20
126
 11
64
 21
126
  0
LINE
  5
152
100
AcDbEntity
  8
brown
  6
ByLayer
 62
  256
370
   -1
100
AcDbLine
 10
64
 20
126
 11
64
 21
132
  0
LINE
  5
153
100
AcDbEntity
  8
brown
  6
ByLayer
 62
  256
370
   -1
100
AcDbLine
 10
64
 20
132
 11
100
 21
132
  0
LINE
  5
154
100
AcDbEntity
  8
brown
  6
ByLayer
 62
  256
370
   -1
100
AcDbLine
 10
30
 20
26.00000000000001
 11
78
 21
26.00000000000001
  0
LINE
  5
155
100
AcDbEntity
  8
brown
  6
ByLayer
 62
  256
370
   -1
100
AcDbLine
 10
78
 20
26.00000000000001
 11
78
 21
32.00000000000001
  0
LINE
  5
156
100
AcDbEntity
  8
brown
  6
ByLayer
 62
  256
370
   -1
100
AcDbLine
 10
78
 20
32.00000000000001
 11
100
 21
32.00000000000001
  0
LINE
  5
157
100
AcDbEntity
  8
red
  6
ByLayer
 62
  256
370
   -1
100
AcDbLine
 10
30
 20
54.00000000000001
 11
56
 21
54.00000000000001
  0
LINE
  5
158
100
AcDbEntity
  8
red
  6
ByLayer
 62
  256
370
   -1
100
AcDbLine
 10
56
 20
54.00000000000001
 11
56
 21
44.00000000000001
  0
LINE
  5
159
100
AcDbEntity
  8
red
  6
ByLayer
 62
  256
370
   -1
100
AcDbLine
 10
56
 20
44.00000000000001
 11
100
 21
44.00000000000001
  0
LINE
  5
15A
100
AcDbEntity
  8
sig
  6
ByLayer
 62
  256
370
   -1
100
AcDbLine
 10
30
 20
40.00000000000001
 11
48
 21
40.00000000000001
  0
LINE
  5
15B
100
AcDbEntity
  8
sig
  6
ByLayer
 62
  256
370
   -1
100
AcDbLine
 10
48
 20
40.00000000000001
 11
48
 21
20.00000000000001
  0
LINE
  5
15C
100
AcDbEntity
  8
sig
  6
ByLayer
 62
  256
370
   -1
100
AcDbLine
 10
48
 20
20.00000000000001
 11
100
 21
20.00000000000001
  0
LINE
  5
15D
100
AcDbEntity
  8
brown
  6
ByLayer
 62
  256
370
   -1
100
AcDbLine
 10
30
 20
226
 11
66
 21
226
  0
LINE
  5
15E
100
AcDbEntity
  8
brown
  6
ByLayer
 62
  256
370
   -1
100
AcDbLine
 10
66
 20
226
 11
66
 21
232
  0
LINE
  5
15F
100
AcDbEntity
  8
brown
  6
ByLayer
 62
  256
370
   -1
100
AcDbLine
 10
66
 20
232
 11
100
 21
232
  0
LINE
  5
160
100
AcDbEntity
  8
brown
  6
ByLayer
 62
  256
370
   -1
100
AcDbLine
 10
32
 20
326
 11
76
 21
326
  0
LINE
  5
161
100
AcDbEntity
  8
brown
  6
ByLayer
 62
  256
370
   -1
100
AcDbLine
 10
76
 20
326
 11
76
 21
332
  0
LINE
  5
162
100
AcDbEntity
  8
brown
  6
ByLayer
 62
  256
370
   -1
100
AcDbLine
 10
76
 20
332
 11
100
 21
332
  0
CIRCLE
  5
163
100
AcDbEntity
  8
0
  6
ByLayer
 62
  256
370
   -1
100
AcDbCircle
 10
368
 20
372
 40
0
  0
LINE
  5
164
100
AcDbEntity
  8
0
  6
ByLayer
 62
  256
370
   -1
100
AcDbLine
 10
362
 20
366
 11
370
 21
366
  0
LINE
  5
165
100
AcDbEntity
  8
0
  6
ByLayer
 62
  256
370
   -1
100
AcDbLine
 10
380
 20
366
 11
388
 21
366
  0
LINE
  5
166
100
AcDbEntity
  8
0
  6
ByLayer
 62
  256
370
   -1
100
AcDbLine
 10
380
 20
366
 11
372
 21
372
  0
CIRCLE
  5
167
100
AcDbEntity
  8
0
  6
ByLayer
 62
  256
370
   -1
100
AcDbCircle
 10
370.0000000000001
 20
366.0000000000001
 40
0.3999999999999773
  0
CIRCLE
  5
168
100
AcDbEntity
  8
0
  6
ByLayer
 62
  256
370
   -1
100
AcDbCircle
 10
380
 20
366
 40
0.4000000000000341
  0
LINE
  5
169
100
AcDbEntity
  8
red
  6
ByLayer
 62
  256
370
   -1
100
AcDbLine
 10
352
 20
366
 11
362
 21
366
  0
LINE
  5
16A
100
AcDbEntity
  8
red
  6
ByLayer
 62
  256
370
   -1
100
AcDbLine
 10
142
 20
320
 11
154
 21
320
  0
LINE
  5
16B
100
AcDbEntity
  8
red
  6
ByLayer
 62
  256
370
   -1
100
AcDbLine
 10
154
 20
320
 11
154
 21
20.00000000000001
  0
LINE
  5
16C
100
AcDbEntity
  8
red
  6
ByLayer
 62
  256
370
   -1
100
AcDbLine
 10
154
 20
20.00000000000001
 11
142
 21
20.00000000000001
  0
LINE
  5
16D
100
AcDbEntity
  8
red
  6
ByLayer
 62
  256
370
   -1
100
AcDbLine
 10
142
 20
120
 11
154
 21
120
  0
LINE
  5
16E
100
AcDbEntity
  8
red
  6
ByLayer
 62
  256
370
   -1
100
AcDbLine
 10
142
 20
220
 11
154
 21
220
  0
LINE
  5
16F
100
AcDbEntity
  8
red
  6
ByLayer
 62
  256
370
   -1
100
AcDbLine
 10
154
 20
294
 11
388
 21
294
  0
LINE
  5
170
100
AcDbEntity
  8
red
  6
ByLayer
 62
  256
370
   -1
100
AcDbLine
 10
388
 20
294
 11
388
 21
366
  0
LINE
  5
171
100
AcDbEntity
  8
brown
  6
ByLayer
 62
  256
370
   -1
100
AcDbLine
 10
352
 20
354
 11
366
 21
354
  0
LINE
  5
172
100
AcDbEntity
  8
brown
  6
ByLayer
 62
  256
370
   -1
100
AcDbLine
 10
366
 20
354
 11
366
 21
288
  0
LINE
  5
173
100
AcDbEntity
  8
brown
  6
ByLayer
 62
  256
370
   -1
100
AcDbLine
 10
366
 20
288
 11
160
 21
288
  0
LINE
  5
174
100
AcDbEntity
  8
brown
  6
ByLayer
 62
  256
370
   -1
100
AcDbLine
 10
160
 20
288
 11
160
 21
308
  0
LINE
  5
175
100
AcDbEntity
  8
brown
  6
ByLayer
 62
  256
370
   -1
100
AcDbLine
 10
160
 20
308
 11
142
 21
308
  0
LINE
  5
176
100
AcDbEntity
  8
brown
  6
ByLayer
 62
  256
370
   -1
100
AcDbLine
 10
160
 20
288
 11
160
 21
8.000000000000007
  0
LINE
  5
177
100
AcDbEntity
  8
brown
  6
ByLayer
 62
  256
370
   -1
100
AcDbLine
 10
160
 20
8.000000000000007
 11
142
 21
8.000000000000007
  0
LINE
  5
178
100
AcDbEntity
  8
brown
  6
ByLayer
 62
  256
370
   -1
100
AcDbLine
 10
142
 20
108
 11
160
 21
108
  0
LINE
  5
179
100
AcDbEntity
  8
brown
  6
ByLayer
 62
  256
370
   -1
100
AcDbLine
 10
142
 20
208
 11
160
 21
208
  0
LINE
  5
17A
100
AcDbEntity
  8
brown
  6
ByLayer
 62
  256
370
   -1
100
AcDbLine
 10
142
 20
344
 11
160
 21
344
  0
LINE
  5
17B
100
AcDbEntity
  8
brown
  6
ByLayer
 62
  256
370
   -1
100
AcDbLine
 10
160
 20
344
 11
160
 21
308
  0
LINE
  5
17C
100
AcDbEntity
  8
brown
  6
ByLayer
 62
  256
370
   -1
100
AcDbLine
 10
142
 20
244
 11
160
 21
244
  0
LINE
  5
17D
100
AcDbEntity
  8
brown
  6
ByLayer
 62
  256
370
   -1
100
AcDbLine
 10
142
 20
144
 11
160
 21
144
  0
LINE
  5
17E
100
AcDbEntity
  8
brown
  6
ByLayer
 62
  256
370
   -1
100
AcDbLine
 10
142
 20
44.00000000000001
 11
160
 21
44.00000000000001
  0
LINE
  5
17F
100
AcDbEntity
  8
orange
  6
ByLayer
 62
  256
370
   -1
100
AcDbLine
 10
142
 20
56.00000000000001
 11
166
 21
56.00000000000001
  0
LINE
  5
180
100
AcDbEntity
  8
orange
  6
ByLayer
 62
  256
370
   -1
100
AcDbLine
 10
166
 20
56.00000000000001
 11
166
 21
-33.99999999999999
  0
LINE
  5
181
100
AcDbEntity
  8
orange
  6
ByLayer
 62
  256
370
   -1
100
AcDbLine
 10
166
 20
-33.99999999999999
 11
358
 21
-33.99999999999999
  0
LINE
  5
182
100
AcDbEntity
  8
orange
  6
ByLayer
 62
  256
370
   -1
100
AcDbLine
 10
358
 20
-33.99999999999999
 11
358
 21
22.00000000000001
  0
LINE
  5
183
100
AcDbEntity
  8
brown
  6
ByLayer
 62
  256
370
   -1
100
AcDbLine
 10
310
 20
34.00000000000001
 11
334
 21
34.00000000000001
  0
LINE
  5
184
100
AcDbEntity
  8
orange
  6
ByLayer
 62
  256
370
   -1
100
AcDbLine
 10
358
 20
46.00000000000001
 11
310
 21
46.00000000000001
  0
LINE
  5
185
100
AcDbEntity
  8
orange
  6
ByLayer
 62
  256
370
   -1
100
AcDbLine
 10
358
 20
22.00000000000001
 11
358
 21
46.00000000000001
  0
LINE
  5
186
100
AcDbEntity
  8
orange
  6
ByLayer
 62
  256
370
   -1
100
AcDbLine
 10
492
 20
256
 11
498
 21
256
  0
LINE
  5
187
100
AcDbEntity
  8
orange
  6
ByLayer
 62
  256
370
   -1
100
AcDbLine
 10
498
 20
256
 11
498
 21
234
  0
LINE
  5
188
100
AcDbEntity
  8
orange
  6
ByLayer
 62
  256
370
   -1
100
AcDbLine
 10
498
 20
234
 11
358
 21
234
  0
LINE
  5
189
100
AcDbEntity
  8
orange
  6
ByLayer
 62
  256
370
   -1
100
AcDbLine
 10
358
 20
234
 11
358
 21
46.00000000000001
  0
LINE
  5
18A
100
AcDbEntity
  8
blue
  6
ByLayer
 62
  256
370
   -1
100
AcDbLine
 10
478
 20
266
 11
478
 21
278
  0
LINE
  5
18B
100
AcDbEntity
  8
blue
  6
ByLayer
 62
  256
370
   -1
100
AcDbLine
 10
478
 20
278
 11
196
 21
278
  0
LINE
  5
18C
100
AcDbEntity
  8
blue
  6
ByLayer
 62
  256
370
   -1
100
AcDbLine
 10
196
 20
278
 11
196
 21
154
  0
LINE
  5
18D
100
AcDbEntity
  8
blue
  6
ByLayer
 62
  256
370
   -1
100
AcDbLine
 10
196
 20
154
 11
210
 21
154
  0
LINE
  5
18E
100
AcDbEntity
  8
blue
  6
ByLayer
 62
  256
370
   -1
100
AcDbLine
 10
210
 20
142
 11
192
 21
142
  0
LINE
  5
18F
100
AcDbEntity
  8
blue
  6
ByLayer
 62
  256
370
   -1
100
AcDbLine
 10
192
 20
142
 11
192
 21
282
  0
LINE
  5
190
100
AcDbEntity
  8
blue
  6
ByLayer
 62
  256
370
   -1
100
AcDbLine
 10
192
 20
282
 11
464
 21
282
  0
LINE
  5
191
100
AcDbEntity
  8
blue
  6
ByLayer
 62
  256
370
   -1
100
AcDbLine
 10
464
 20
282
 11
464
 21
266
  0
LINE
  5
192
100
AcDbEntity
  8
blue
  6
ByLayer
 62
  256
370
   -1
100
AcDbLine
 10
450
 20
266
 11
450
 21
286
  0
LINE
  5
193
100
AcDbEntity
  8
blue
  6
ByLayer
 62
  256
370
   -1
100
AcDbLine
 10
450
 20
286
 11
188
 21
286
  0
LINE
  5
194
100
AcDbEntity
  8
blue
  6
ByLayer
 62
  256
370
   -1
100
AcDbLine
 10
188
 20
286
 11
188
 21
106
  0
LINE
  5
195
100
AcDbEntity
  8
blue
  6
ByLayer
 62
  256
370
   -1
100
AcDbLine
 10
210
 20
106
 11
188
 21
106
  0
LINE
  5
196
100
AcDbEntity
  8
blue
  6
ByLayer
 62
  256
370
   -1
100
AcDbLine
 10
210
 20
94
 11
184
 21
94
  0
LINE
  5
197
100
AcDbEntity
  8
blue
  6
ByLayer
 62
  256
370
   -1
100
AcDbLine
 10
184
 20
94
 11
184
 21
290
  0
LINE
  5
198
100
AcDbEntity
  8
blue
  6
ByLayer
 62
  256
370
   -1
100
AcDbLine
 10
184
 20
290
 11
436
 21
290
  0
LINE
  5
199
100
AcDbEntity
  8
blue
  6
ByLayer
 62
  256
370
   -1
100
AcDbLine
 10
436
 20
290
 11
436
 21
266
  0
LINE
  5
19A
100
AcDbEntity
  8
blue
  6
ByLayer
 62
  256
370
   -1
100
AcDbLine
 10
422
 20
266
 11
422
 21
294
  0
LINE
  5
19B
100
AcDbEntity
  8
blue
  6
ByLayer
 62
  256
370
   -1
100
AcDbLine
 10
422
 20
294
 11
422
 21
296
  0
LINE
  5
19C
100
AcDbEntity
  8
blue
  6
ByLayer
 62
  256
370
   -1
100
AcDbLine
 10
422
 20
296
 11
180
 21
296
  0
LINE
  5
19D
100
AcDbEntity
  8
blue
  6
ByLayer
 62
  256
370
   -1
100
AcDbLine
 10
180
 20
296
 11
180
 21
82
  0
LINE
  5
19E
100
AcDbEntity
  8
blue
  6
ByLayer
 62
  256
370
   -1
100
AcDbLine
 10
180
 20
82
 11
210
 21
82
  0
LINE
  5
19F
100
AcDbEntity
  8
blue
  6
ByLayer
 62
  256
370
   -1
100
AcDbLine
 10
210
 20
70
 11
176
 21
70
  0
LINE
  5
1A0
100
AcDbEntity
  8
blue
  6
ByLayer
 62
  256
370
   -1
100
AcDbLine
 10
176
 20
70
 11
176
 21
274
  0
LINE
  5
1A1
100
AcDbEntity
  8
blue
  6
ByLayer
 62
  256
370
   -1
100
AcDbLine
 10
176
 20
274
 11
370
 21
274
  0
LINE
  5
1A2
100
AcDbEntity
  8
blue
  6
ByLayer
 62
  256
370
   -1
100
AcDbLine
 10
370
 20
274
 11
370
 21
266
  0
LINE
  5
1A3
100
AcDbEntity
  8
blue
  6
ByLayer
 62
  256
370
   -1
100
AcDbLine
 10
370
 20
266
 11
408
 21
266
  0
LWPOLYLINE
  5
1A4
100
AcDbEntity
  8
0
  6
ByLayer
 62
  256
370
   -1
100
AcDbPolyline
 90
    4
 70
    1
 43
0
 10
400
 20
220
 10
500
 20
220
 10
500
 20
140
 10
400
 20
140
  0
CIRCLE
  5
1A5
100
AcDbEntity
  8
0
  6
ByLayer
 62
  256
370
   -1
100
AcDbCircle
 10
408
 20
212
 40
4
  0
CIRCLE
  5
1A6
100
AcDbEntity
  8
0
  6
ByLayer
 62
  256
370
   -1
100
AcDbCircle
 10
420
 20
212
 40
4
  0
CIRCLE
  5
1A7
100
AcDbEntity
  8
0
  6
ByLayer
 62
  256
370
   -1
100
AcDbCircle
 10
432
 20
212
 40
4
  0
CIRCLE
  5
1A8
100
AcDbEntity
  8
0
  6
ByLayer
 62
  256
370
   -1
100
AcDbCircle
 10
444
 20
212
 40
4
  0
CIRCLE
  5
1A9
100
AcDbEntity
  8
0
  6
ByLayer
 62
  256
370
   -1
100
AcDbCircle
 10
456
 20
212
 40
4
  0
CIRCLE
  5
1AA
100
AcDbEntity
  8
0
  6
ByLayer
 62
  256
370
   -1
100
AcDbCircle
 10
468
 20
212
 40
4
  0
CIRCLE
  5
1AB
100
AcDbEntity
  8
0
  6
ByLayer
 62
  256
370
   -1
100
AcDbCircle
 10
480
 20
212
 40
4
  0
CIRCLE
  5
1AC
100
AcDbEntity
  8
0
  6
ByLayer
 62
  256
370
   -1
100
AcDbCircle
 10
492
 20
212
 40
4
  0
MTEXT
  5
1AD
100
AcDbEntity
  8
0
  6
ByLayer
 62
  256
370
   -1
100
AcDbMText
 10
452.0000000000005
 20
147
 30
0
 40
6
 41
33.33333333333407
 71
    5
 72
    1
  1
MPU6050
  7
iso
210
0
220
0
230
1
 50
0
 73
    2
 44
1
  0
MTEXT
  5
1AE
100
AcDbEntity
  8
0
  6
ByLayer
 62
  256
370
   -1
100
AcDbMText
 10
408
 20
204
 30
0
 40
4
 41
7.111111111111111
 71
    5
 72
    1
  1
INT
  7
iso
210
0
220
0
230
1
 50
0
 73
    2
 44
1
  0
MTEXT
  5
1AF
100
AcDbEntity
  8
0
  6
ByLayer
 62
  256
370
   -1
100
AcDbMText
 10
420
 20
204
 30
0
 40
4
 41
9.333333333333583
 71
    5
 72
    1
  1
AD0
  7
iso
210
0
220
0
230
1
 50
0
 73
    2
 44
1
  0
MTEXT
  5
1B0
100
AcDbEntity
  8
0
  6
ByLayer
 62
  256
370
   -1
100
AcDbMText
 10
432
 20
204
 30
0
 40
4
 41
8.888888888888889
 71
    5
 72
    1
  1
XCL
  7
iso
210
0
220
0
230
1
 50
0
 73
    2
 44
1
  0
MTEXT
  5
1B1
100
AcDbEntity
  8
0
  6
ByLayer
 62
  256
370
   -1
100
AcDbMText
 10
444
 20
204
 30
0
 40
4
 41
10.22222222222247
 71
    5
 72
    1
  1
XDA
  7
iso
210
0
220
0
230
1
 50
0
 73
    2
 44
1
  0
MTEXT
  5
1B2
100
AcDbEntity
  8
0
  6
ByLayer
 62
  256
370
   -1
100
AcDbMText
 10
456
 20
204
 30
0
 40
4
 41
9.777776929769427
 71
    5
 72
    1
  1
SDA
  7
iso
210
0
220
0
230
1
 50
0
 73
    2
 44
1
  0
MTEXT
  5
1B3
100
AcDbEntity
  8
0
  6
ByLayer
 62
  256
370
   -1
100
AcDbMText
 10
468
 20
204
 30
0
 40
4
 41
8.444443596435846
 71
    5
 72
    1
  1
SCL
  7
iso
210
0
220
0
230
1
 50
0
 73
    2
 44
1
  0
MTEXT
  5
1B4
100
AcDbEntity
  8
0
  6
ByLayer
 62
  256
370
   -1
100
AcDbMText
 10
480
 20
204
 30
0
 40
4
 41
9.33333333333383
 71
    5
 72
    1
  1
GND
  7
iso
210
0
220
0
230
1
 50
0
 73
    2
 44
1
  0
MTEXT
  5
1B5
100
AcDbEntity
  8
0
  6
ByLayer
 62
  256
370
   -1
100
AcDbMText
 10
492
 20
204
 30
0
 40
4
 41
8.888888888888889
 71
    5
 72
    1
  1
VCC
  7
iso
210
0
220
0
230
1
 50
0
 73
    2
 44
1
  0
LINE
  5
1B6
100
AcDbEntity
  8
green
  6
ByLayer
 62
  256
370
   -1
100
AcDbLine
 10
456
 20
212
 11
456
 21
224
  0
LINE
  5
1B7
100
AcDbEntity
  8
green
  6
ByLayer
 62
  256
370
   -1
100
AcDbLine
 10
456
 20
224
 11
324
 21
224
  0
LINE
  5
1B8
100
AcDbEntity
  8
green
  6
ByLayer
 62
  256
370
   -1
100
AcDbLine
 10
324
 20
224
 11
324
 21
264
  0
LINE
  5
1B9
100
AcDbEntity
  8
green
  6
ByLayer
 62
  256
370
   -1
100
AcDbLine
 10
324
 20
264
 11
168
 21
264
  0
LINE
  5
1BA
100
AcDbEntity
  8
green
  6
ByLayer
 62
  256
370
   -1
100
AcDbLine
 10
168
 20
264
 11
168
 21
202
  0
LINE
  5
1BB
100
AcDbEntity
  8
green
  6
ByLayer
 62
  256
370
   -1
100
AcDbLine
 10
168
 20
202
 11
210
 21
202
  0
LINE
  5
1BC
100
AcDbEntity
  8
green
  6
ByLayer
 62
  256
370
   -1
100
AcDbLine
 10
210
 20
190
 11
164
 21
190
  0
LINE
  5
1BD
100
AcDbEntity
  8
green
  6
ByLayer
 62
  256
370
   -1
100
AcDbLine
 10
164
 20
190
 11
164
 21
268
  0
LINE
  5
1BE
100
AcDbEntity
  8
green
  6
ByLayer
 62
  256
370
   -1
100
AcDbLine
 10
164
 20
268
 11
328
 21
268
  0
LINE
  5
1BF
100
AcDbEntity
  8
green
  6
ByLayer
 62
  256
370
   -1
100
AcDbLine
 10
328
 20
268
 11
328
 21
228
  0
LINE
  5
1C0
100
AcDbEntity
  8
green
  6
ByLayer
 62
  256
370
   -1
100
AcDbLine
 10
328
 20
228
 11
468
 21
228
  0
LINE
  5
1C1
100
AcDbEntity
  8
green
  6
ByLayer
 62
  256
370
   -1
100
AcDbLine
 10
468
 20
228
 11
468
 21
212
  0
LINE
  5
1C2
100
AcDbEntity
  8
orange
  6
ByLayer
 62
  256
370
   -1
100
AcDbLine
 10
492
 20
212
 11
492
 21
224
  0
LINE
  5
1C3
100
AcDbEntity
  8
orange
  6
ByLayer
 62
  256
370
   -1
100
AcDbLine
 10
492
 20
224
 11
498
 21
224
  0
LINE
  5
1C4
100
AcDbEntity
  8
orange
  6
ByLayer
 62
  256
370
   -1
100
AcDbLine
 10
498
 20
224
 11
498
 21
234
  0
LINE
  5
1C5
100
AcDbEntity
  8
text
  6
ByLayer
 62
  256
370
   -1
100
AcDbLine
 10
436
 20
60.00000000000001
 11
442
 21
76
  0
LINE
  5
1C6
100
AcDbEntity
  8
text
  6
ByLayer
 62
  256
370
   -1
100
AcDbLine
 10
442
 20
76
 11
448
 21
60.00000000000001
  0
LINE
  5
1C7
100
AcDbEntity
  8
text
  6
ByLayer
 62
  256
370
   -1
100
AcDbLine
 10
448
 20
60.00000000000001
 11
454
 21
76
  0
LINE
  5
1C8
100
AcDbEntity
  8
text
  6
ByLayer
 62
  256
370
   -1
100
AcDbLine
 10
454
 20
76
 11
460
 21
60.00000000000001
  0
LINE
  5
1C9
100
AcDbEntity
  8
text
  6
ByLayer
 62
  256
370
   -1
100
AcDbLine
 10
460
 20
60.00000000000001
 11
466
 21
76
  0
LINE
  5
1CA
100
AcDbEntity
  8
text
  6
ByLayer
 62
  256
370
   -1
100
AcDbLine
 10
466
 20
76
 11
472
 21
60.00000000000001
  0
LINE
  5
1CB
100
AcDbEntity
  8
text
  6
ByLayer
 62
  256
370
   -1
100
AcDbLine
 10
472
 20
60.00000000000001
 11
478
 21
76
  0
LINE
  5
1CC
100
AcDbEntity
  8
text
  6
ByLayer
 62
  256
370
   -1
100
AcDbLine
 10
478
 20
76
 11
482
 21
68
  0
LINE
  5
1CD
100
AcDbEntity
  8
text
  6
ByLayer
 62
  256
370
   -1
100
AcDbLine
 10
436
 20
60.00000000000001
 11
432
 21
68
  0
LINE
  5
1CE
100
AcDbEntity
  8
text
  6
ByLayer
 62
  256
370
   -1
100
AcDbLine
 10
436
 20
100
 11
442
 21
116
  0
LINE
  5
1CF
100
AcDbEntity
  8
text
  6
ByLayer
 62
  256
370
   -1
100
AcDbLine
 10
442
 20
116
 11
448
 21
100
  0
LINE
  5
1D0
100
AcDbEntity
  8
text
  6
ByLayer
 62
  256
370
   -1
100
AcDbLine
 10
448
 20
100
 11
454
 21
116
  0
LINE
  5
1D1
100
AcDbEntity
  8
text
  6
ByLayer
 62
  256
370
   -1
100
AcDbLine
 10
454
 20
116
 11
460
 21
100
  0
LINE
  5
1D2
100
AcDbEntity
  8
text
  6
ByLayer
 62
  256
370
   -1
100
AcDbLine
 10
460
 20
100
 11
466
 21
116
  0
LINE
  5
1D3
100
AcDbEntity
  8
text
  6
ByLayer
 62
  256
370
   -1
100
AcDbLine
 10
466
 20
116
 11
472
 21
100
  0
LINE
  5
1D4
100
AcDbEntity
  8
text
  6
ByLayer
 62
  256
370
   -1
100
AcDbLine
 10
472
 20
100
 11
478
 21
116
  0
LINE
  5
1D5
100
AcDbEntity
  8
text
  6
ByLayer
 62
  256
370
   -1
100
AcDbLine
 10
478
 20
116
 11
482
 21
108
  0
LINE
  5
1D6
100
AcDbEntity
  8
text
  6
ByLayer
 62
  256
370
   -1
100
AcDbLine
 10
436
 20
100
 11
432
 21
108
  0
LINE
  5
1D7
100
AcDbEntity
  8
brown
  6
ByLayer
 62
  256
370
   -1
100
AcDbLine
 10
492
 20
230
 11
334
 21
230
  0
LINE
  5
1D8
100
AcDbEntity
  8
brown
  6
ByLayer
 62
  256
370
   -1
100
AcDbLine
 10
480
 20
212
 11
480
 21
230
  0
LINE
  5
1D9
100
AcDbEntity
  8
brown
  6
ByLayer
 62
  256
370
   -1
100
AcDbLine
 10
492
 20
246
 11
492
 21
230
  0
LINE
  5
1DA
100
AcDbEntity
  8
brown
  6
ByLayer
 62
  256
370
   -1
100
AcDbLine
 10
334
 20
230
 11
334
 21
34.00000000000001
  0
LINE
  5
1DB
100
AcDbEntity
  8
0
  6
ByLayer
 62
  256
370
   -1
100
AcDbLine
 10
482
 20
108
 11
488
 21
108
  0
LINE
  5
1DC
100
AcDbEntity
  8
0
  6
ByLayer
 62
  256
370
   -1
100
AcDbLine
 10
484
 20
68
 11
488
 21
68
  0
LINE
  5
1DD
100
AcDbEntity
  8
0
  6
ByLayer
 62
  256
370
   -1
100
AcDbLine
 10
482
 20
68
 11
484
 21
68
  0
LINE
  5
1DE
100
AcDbEntity
  8
red
  6
ByLayer
 62
  256
370
   -1
100
AcDbLine
 10
488.056
 20
114.0932
 11
498
 21
108
  0
LINE
  5
1DF
100
AcDbEntity
  8
red
  6
ByLayer
 62
  256
370
   -1
100
AcDbLine
 10
487.944
 20
102.0936
 11
488.056
 21
114.0932
  0
LINE
  5
1E0
100
AcDbEntity
  8
red
  6
ByLayer
 62
  256
370
   -1
100
AcDbLine
 10
498
 20
108
 11
487.944
 21
102.0936
  0
LINE
  5
1E1
100
AcDbEntity
  8
text
  6
ByLayer
 62
    1
370
   -1
100
AcDbLine
 10
498.056
 20
113.9998
 11
497.944
 21
102.0002
  0
LINE
  5
1E2
100
AcDbEntity
  8
red
  6
ByLayer
 62
    3
370
   -1
100
AcDbLine
 10
488
 20
74
 11
498
 21
68
  0
LINE
  5
1E3
100
AcDbEntity
  8
green
  6
ByLayer
 62
  256
370
   -1
100
AcDbLine
 10
488
 20
62.00000000000001
 11
488
 21
74
  0
LINE
  5
1E4
100
AcDbEntity
  8
green
  6
ByLayer
 62
  256
370
   -1
100
AcDbLine
 10
498
 20
68
 11
488
 21
62.00000000000001
  0
LINE
  5
1E5
100
AcDbEntity
  8
green
  6
ByLayer
 62
  256
370
   -1
100
AcDbLine
 10
498
 20
74
 11
498
 21
62.00000000000001
  0
LINE
  5
1E6
100
AcDbEntity
  8
0
  6
ByLayer
 62
  256
370
   -1
100
AcDbLine
 10
432
 20
68
 11
362
 21
68
  0
LINE
  5
1E7
100
AcDbEntity
  8
0
  6
ByLayer
 62
  256
370
   -1
100
AcDbLine
 10
362
 20
68
 11
362
 21
106
  0
LINE
  5
1E8
100
AcDbEntity
  8
0
  6
ByLayer
 62
  256
370
   -1
100
AcDbLine
 10
362
 20
106
 11
310
 21
106
  0
LINE
  5
1E9
100
AcDbEntity
  8
0
  6
ByLayer
 62
  256
370
   -1
100
AcDbLine
 10
366
 20
108
 11
366
 21
118
  0
LINE
  5
1EA
100
AcDbEntity
  8
0
  6
ByLayer
 62
  256
370
   -1
100
AcDbLine
 10
432
 20
108
 11
366
 21
108
  0
LINE
  5
1EB
100
AcDbEntity
  8
0
  6
ByLayer
 62
  256
370
   -1
100
AcDbLine
 10
366
 20
118
 11
310
 21
118
  0
MTEXT
  5
1EC
100
AcDbEntity
  8
0
  6
ByLayer
 62
  256
370
   -1
100
AcDbMText
 10
460
 20
120
 30
0
 40
4
 41
11.5555555555558
 71
    5
 72
    1
  1
300R
  7
iso
210
0
220
0
230
1
 50
0
 73
    2
 44
1
  0
MTEXT
  5
1ED
100
AcDbEntity
  8
0
  6
ByLayer
 62
  256
370
   -1
100
AcDbMText
 10
460
 20
80
 30
0
 40
4
 41
11.5555555555558
 71
    5
 72
    1
  1
300R
  7
iso
210
0
220
0
230
1
 50
0
 73
    2
 44
1
  0
MTEXT
  5
1EE
100
AcDbEntity
  8
0
  6
ByLayer
 62
  256
370
   -1
100
AcDbMText
 10
494
 20
80
 30
0
 40
4
 41
15.00000000000049
 71
    5
 72
    1
  1
G LED
  7
iso
210
0
220
0
230
1
 50
0
 73
    2
 44
1
  0
MTEXT
  5
1EF
100
AcDbEntity
  8
0
  6
ByLayer
 62
  256
370
   -1
100
AcDbMText
 10
494
 20
120
 30
0
 40
4
 41
15.00000000000025
 71
    5
 72
    1
  1
R LED
  7
iso
210
0
220
0
230
1
 50
0
 73
    2
 44
1
  0
LINE
  5
1F0
100
AcDbEntity
  8
brown
  6
ByLayer
 62
  256
370
   -1
100
AcDbLine
 10
498
 20
108
 11
504
 21
108
  0
LINE
  5
1F1
100
AcDbEntity
  8
brown
  6
ByLayer
 62
  256
370
   -1
100
AcDbLine
 10
504
 20
108
 11
504
 21
68
  0
LINE
  5
1F2
100
AcDbEntity
  8
brown
  6
ByLayer
 62
  256
370
   -1
100
AcDbLine
 10
504
 20
68
 11
498
 21
68
  0
LINE
  5
1F3
100
AcDbEntity
  8
brown
  6
ByLayer
 62
  256
370
   -1
100
AcDbLine
 10
504
 20
108
 11
504
 21
230
  0
LINE
  5
1F4
100
AcDbEntity
  8
brown
  6
ByLayer
 62
  256
370
   -1
100
AcDbLine
 10
504
 20
230
 11
492
 21
230
  0
LINE
  5
1F5
100
AcDbEntity
  8
red
  6
ByLayer
 62
  256
370
   -1
100
AcDbLine
 10
388
 20
294
 11
388
 21
40.00000000000001
  0
LINE
  5
1F6
100
AcDbEntity
  8
text
  6
ByLayer
 62
  256
370
   -1
100
AcDbLine
 10
436
 20
24.00000000000001
 11
442
 21
40.00000000000001
  0
LINE
  5
1F7
100
AcDbEntity
  8
text
  6
ByLayer
 62
  256
370
   -1
100
AcDbLine
 10
442
 20
40.00000000000001
 11
448
 21
24.00000000000001
  0
LINE
  5
1F8
100
AcDbEntity
  8
text
  6
ByLayer
 62
  256
370
   -1
100
AcDbLine
 10
448
 20
24.00000000000001
 11
454
 21
40.00000000000001
  0
LINE
  5
1F9
100
AcDbEntity
  8
text
  6
ByLayer
 62
  256
370
   -1
100
AcDbLine
 10
454
 20
40.00000000000001
 11
460
 21
24.00000000000001
  0
LINE
  5
1FA
100
AcDbEntity
  8
text
  6
ByLayer
 62
  256
370
   -1
100
AcDbLine
 10
460
 20
24.00000000000001
 11
466
 21
40.00000000000001
  0
LINE
  5
1FB
100
AcDbEntity
  8
text
  6
ByLayer
 62
  256
370
   -1
100
AcDbLine
 10
466
 20
40.00000000000001
 11
472
 21
24.00000000000001
  0
LINE
  5
1FC
100
AcDbEntity
  8
text
  6
ByLayer
 62
  256
370
   -1
100
AcDbLine
 10
472
 20
24.00000000000001
 11
478
 21
40.00000000000001
  0
LINE
  5
1FD
100
AcDbEntity
  8
text
  6
ByLayer
 62
  256
370
   -1
100
AcDbLine
 10
478
 20
40.00000000000001
 11
482
 21
32.00000000000001
  0
LINE
  5
1FE
100
AcDbEntity
  8
text
  6
ByLayer
 62
  256
370
   -1
100
AcDbLine
 10
436
 20
24.00000000000001
 11
432
 21
32.00000000000001
  0
LINE
  5
1FF
100
AcDbEntity
  8
red
  6
ByLayer
 62
  256
370
   -1
100
AcDbLine
 10
388
 20
40.00000000000001
 11
388
 21
32.00000000000001
  0
LINE
  5
200
100
AcDbEntity
  8
red
  6
ByLayer
 62
  256
370
   -1
100
AcDbLine
 10
388
 20
32.00000000000001
 11
432
 21
32.00000000000001
  0
LINE
  5
201
100
AcDbEntity
  8
text
  6
ByLayer
 62
  256
370
   -1
100
AcDbLine
 10
494
 20
24.00000000000001
 11
500
 21
40.00000000000001
  0
LINE
  5
202
100
AcDbEntity
  8
text
  6
ByLayer
 62
  256
370
   -1
100
AcDbLine
 10
500
 20
40.00000000000001
 11
506
 21
24.00000000000001
  0
LINE
  5
203
100
AcDbEntity
  8
text
  6
ByLayer
 62
  256
370
   -1
100
AcDbLine
 10
506
 20
24.00000000000001
 11
512
 21
40.00000000000001
  0
LINE
  5
204
100
AcDbEntity
  8
text
  6
ByLayer
 62
  256
370
   -1
100
AcDbLine
 10
512
 20
40.00000000000001
 11
518
 21
24.00000000000001
  0
LINE
  5
205
100
AcDbEntity
  8
text
  6
ByLayer
 62
  256
370
   -1
100
AcDbLine
 10
518
 20
24.00000000000001
 11
524
 21
40.00000000000001
  0
LINE
  5
206
100
AcDbEntity
  8
text
  6
ByLayer
 62
  256
370
   -1
100
AcDbLine
 10
524
 20
40.00000000000001
 11
530
 21
24.00000000000001
  0
LINE
  5
207
100
AcDbEntity
  8
text
  6
ByLayer
 62
  256
370
   -1
100
AcDbLine
 10
530
 20
24.00000000000001
 11
536
 21
40.00000000000001
  0
LINE
  5
208
100
AcDbEntity
  8
text
  6
ByLayer
 62
  256
370
   -1
100
AcDbLine
 10
536
 20
40.00000000000001
 11
540
 21
32.00000000000001
  0
LINE
  5
209
100
AcDbEntity
  8
text
  6
ByLayer
 62
  256
370
   -1
100
AcDbLine
 10
494
 20
24.00000000000001
 11
490
 21
32.00000000000001
  0
LINE
  5
20A
100
AcDbEntity
  8
brown
  6
ByLayer
 62
  256
370
   -1
100
AcDbLine
 10
504
 20
68
 11
544
 21
68
  0
LINE
  5
20B
100
AcDbEntity
  8
brown
  6
ByLayer
 62
  256
370
   -1
100
AcDbLine
 10
544
 20
68
 11
544
 21
32.00000000000001
  0
LINE
  5
20C
100
AcDbEntity
  8
brown
  6
ByLayer
 62
  256
370
   -1
100
AcDbLine
 10
544
 20
32.00000000000001
 11
540
 21
32.00000000000001
  0
LINE
  5
20D
100
AcDbEntity
  8
0
  6
ByLayer
 62
  256
370
   -1
100
AcDbLine
 10
482
 20
32.00000000000001
 11
490
 21
32.00000000000001
  0
LINE
  5
20E
100
AcDbEntity
  8
0
  6
ByLayer
 62
  256
370
   -1
100
AcDbLine
 10
486
 20
32.00000000000001
 11
486
 21
46.00000000000001
  0
LINE
  5
20F
100
AcDbEntity
  8
0
  6
ByLayer
 62
  256
370
   -1
100
AcDbLine
 10
486
 20
46.00000000000001
 11
362
 21
46.00000000000001
  0
MTEXT
  5
210
100
AcDbEntity
  8
0
  6
ByLayer
 62
  256
370
   -1
100
AcDbMText
 10
460
 20
20.00000000000001
 30
0
 40
4
 41
7.555555555555555
 71
    5
 72
    1
  1
10K
  7
iso
210
0
220
0
230
1
 50
0
 73
    2
 44
1
  0
MTEXT
  5
211
100
AcDbEntity
  8
0
  6
ByLayer
 62
  256
370
   -1
100
AcDbMText
 10
520
 20
20.00000000000001
 30
0
 40
4
 41
4.444444444444445
 71
    5
 72
    1
  1
1K
  7
iso
210
0
220
0
230
1
 50
0
 73
    2
 44
1
  0
LINE
  5
212
100
AcDbEntity
  8
sig
  6
ByLayer
 62
  256
370
   -1
100
AcDbLine
 10
178
 20
294
 11
178
 21
332
  0
LINE
  5
213
100
AcDbEntity
  8
sig
  6
ByLayer
 62
  256
370
   -1
100
AcDbLine
 10
178
 20
332
 11
142
 21
332
  0
LINE
  5
214
100
AcDbEntity
  8
sig
  6
ByLayer
 62
  256
370
   -1
100
AcDbLine
 10
186
 20
132
 11
186
 21
-3.999999999999993
  0
LINE
  5
215
100
AcDbEntity
  8
sig
  6
ByLayer
 62
  256
370
   -1
100
AcDbLine
 10
186
 20
132
 11
142
 21
132
  0
LINE
  5
216
100
AcDbEntity
  8
sig
  6
ByLayer
 62
  256
370
   -1
100
AcDbLine
 10
186
 20
-3.999999999999993
 11
328
 21
-3.999999999999993
  0
LINE
  5
217
100
AcDbEntity
  8
sig
  6
ByLayer
 62
  256
370
   -1
100
AcDbLine
 10
142
 20
32.00000000000001
 11
190
 21
32.00000000000001
  0
LINE
  5
218
100
AcDbEntity
  8
sig
  6
ByLayer
 62
  256
370
   -1
100
AcDbLine
 10
182
 20
232
 11
182
 21
-7.999999999999993
  0
LINE
  5
219
100
AcDbEntity
  8
sig
  6
ByLayer
 62
  256
370
   -1
100
AcDbLine
 10
182
 20
-7.999999999999993
 11
338
 21
-7.999999999999993
  0
LINE
  5
21A
100
AcDbEntity
  8
sig
  6
ByLayer
 62
  256
370
   -1
100
AcDbLine
 10
338
 20
-7.999999999999993
 11
338
 21
58.00000000000001
  0
LINE
  5
21B
100
AcDbEntity
  8
sig
  6
ByLayer
 62
  256
370
   -1
100
AcDbLine
 10
344
 20
94
 11
344
 21
-11.99999999999999
  0
LINE
  5
21C
100
AcDbEntity
  8
sig
  6
ByLayer
 62
  256
370
   -1
100
AcDbLine
 10
344
 20
-11.99999999999999
 11
178
 21
-11.99999999999999
  0
LINE
  5
21D
100
AcDbEntity
  8
sig
  6
ByLayer
 62
  256
370
   -1
100
AcDbLine
 10
178
 20
-11.99999999999999
 11
178
 21
294
  0
LINE
  5
21E
100
AcDbEntity
  8
sig
  6
ByLayer
 62
  256
370
   -1
100
AcDbLine
 10
190
 20
-15.99999999999999
 11
352
 21
-15.99999999999999
  0
LINE
  5
21F
100
AcDbEntity
  8
sig
  6
ByLayer
 62
  256
370
   -1
100
AcDbLine
 10
352
 20
-15.99999999999999
 11
352
 21
70
  0
LINE
  5
220
100
AcDbEntity
  8
sig
  6
ByLayer
 62
  256
370
   -1
100
AcDbLine
 10
190
 20
32.00000000000001
 11
190
 21
-15.99999999999999
  0
LINE
  5
221
100
AcDbEntity
  8
brown
  6
ByLayer
 62
  256
370
   -1
100
AcDbLine
 10
334
 20
34.00000000000001
 11
334
 21
-19.99999999999999
  0
LINE
  5
222
100
AcDbEntity
  8
brown
  6
ByLayer
 62
  256
370
   -1
100
AcDbLine
 10
174
 20
-19.99999999999999
 11
174
 21
8.000000000000007
  0
LINE
  5
223
100
AcDbEntity
  8
brown
  6
ByLayer
 62
  256
370
   -1
100
AcDbLine
 10
334
 20
-19.99999999999999
 11
174
 21
-19.99999999999999
  0
LINE
  5
224
100
AcDbEntity
  8
brown
  6
ByLayer
 62
  256
370
   -1
100
AcDbLine
 10
174
 20
8.000000000000007
 11
160
 21
8.000000000000007
  0
LINE
  5
225
100
AcDbEntity
  8
0
  6
ByLayer
 62
  256
370
   -1
100
AcDbLine
 10
194
 20
-25.99999999999999
 11
194
 21
118
  0
LINE
  5
226
100
AcDbEntity
  8
0
  6
ByLayer
 62
  256
370
   -1
100
AcDbLine
 10
194
 20
118
 11
210
 21
118
  0
LINE
  5
227
100
AcDbEntity
  8
0
  6
ByLayer
 62
  256
370
   -1
100
AcDbLine
 10
362
 20
-25.99999999999999
 11
194
 21
-25.99999999999999
  0
LINE
  5
228
100
AcDbEntity
  8
0
  6
ByLayer
 62
  256
370
   -1
100
AcDbLine
 10
362
 20
46.00000000000001
 11
362
 21
-25.99999999999999
  0
LWPOLYLINE
  5
229
100
AcDbEntity
  8
0
  6
ByLayer
 62
  256
370
   -1
100
AcDbPolyline
 90
    4
 70
    1
 43
0
 10
398.222222222222
 20
452.6666666666666
 10
498.2222222222219
 20
452.6666666666666
 10
498.2222222222219
 20
430.6666666666666
 10
398.222222222222
 20
430.6666666666666
  0
MTEXT
  5
22A
100
AcDbEntity
  8
0
  6
ByLayer
 62
  256
370
   -1
100
AcDbMText
 10
446.9999999999999
 20
442
 30
0
 40
4
 41
57.0000000000005
 71
    5
 72
    1
  1
VIN -> 12.6V\PVCC <-> 5V\PVDD -> Motor Power
  7
iso
210
0
220
0
230
1
 50
0
 73
    2
 44
1
  0
MTEXT
  5
22B
100
AcDbEntity
  8
0
  6
ByLayer
 62
  256
370
   -1
100
AcDbMText
 10
449.8888888888889
 20
457.6666666666666
 30
0
 40
6
 41
46.00000000000038
 71
    5
 72
    1
  1
INFORMACJE
  7
iso
210
0
220
0
230
1
 50
0
 73
    2
 44
1
  0
ENDSEC
  0
SECTION
  2
OBJECTS
  0
DICTIONARY
  5
C
330
0
100
AcDbDictionary
281
    1
  3
ACAD_GROUP
350
D
  0
DICTIONARY
  5
D
330
C
100
AcDbDictionary
281
    1
  0
PLOTSETTINGS
  5
22C
100
AcDbPlotSettings
  6
1x1
 40
0
 41
0
 42
0
 43
0
  0
ENDSEC
  0
EOF
